<svg width="176" height="128" viewBox="0 0 176 128" fill="none" xmlns="http://www.w3.org/2000/svg">
<path d="M153.223 92.2496H155.459V67.4038H155.501L173.225 92.2496H176V65.7531H173.764V89.1891H173.681L156.992 65.7531H153.223V92.2496ZM137.279 90.5583C131.192 90.5583 126.057 86.1691 126.057 78.8806C126.057 71.7538 131.192 67.4444 137.279 67.4444C143.367 67.4444 148.502 71.753 148.502 78.8806C148.502 86.1691 143.367 90.5583 137.279 90.5583ZM137.279 92.6518C144.775 92.6518 150.863 87.4573 150.863 78.8802C150.863 70.4617 144.775 65.35 137.279 65.35C129.783 65.35 123.738 70.4639 123.738 78.8802C123.738 87.4573 129.784 92.6518 137.279 92.6518ZM118.81 92.2509H121.172V65.7531H118.81V92.2509ZM104.854 92.2509H107.216V67.8065H116.616V65.7531H95.4955V67.8065H104.855L104.854 92.2509ZM81.7052 92.6518C88.5799 92.6518 92.7624 88.7459 92.7624 82.7861V65.7531H90.6502V82.7866C90.6502 87.5784 87.2958 90.5583 81.7881 90.5583C76.239 90.5583 72.8846 87.5784 72.8846 82.7866V65.7531H70.5669V82.7866C70.5669 88.7463 74.7909 92.6523 81.7066 92.6523L81.7052 92.6518ZM52.6764 92.2514H70.0285V90.1579H54.9946V65.7531H52.6769L52.6764 92.2514ZM36.7333 90.5588C30.6454 90.5588 25.5103 86.1696 25.5103 78.8811C25.5103 71.7543 30.6454 67.4448 36.7333 67.4448C42.8213 67.4448 47.9559 71.7534 47.9559 78.8811C47.9559 86.1696 42.8209 90.5588 36.7333 90.5588ZM36.7333 92.6523C44.2289 92.6523 50.3164 87.4577 50.3164 78.8806C50.3164 70.4621 44.2289 65.3504 36.7333 65.3504C29.2378 65.3504 23.1904 70.4661 23.1904 78.8806C23.1904 87.4577 29.2365 92.6523 36.7324 92.6523H36.7333ZM10.7256 92.6523C19.3394 92.6523 21.7414 88.7864 21.7414 84.8805C21.7414 82.5046 20.6231 80.7327 18.7997 79.8873C17.0168 79.0013 14.0372 78.5581 11.387 78.1947C9.10901 77.8722 5.67213 77.3894 4.30558 76.6642C3.06293 75.9796 2.3177 74.8522 2.3177 72.9997C2.3177 69.659 5.58923 67.3219 10.5999 67.3219C16.2734 67.3219 18.5924 69.8991 18.5924 74.9729H20.7876C20.7876 68.8118 18.1784 65.3491 10.5585 65.3491C4.14111 65.3504 0 68.6118 0 73.1623C0 75.5783 1.07639 77.2695 2.60875 78.1956C4.14111 79.0815 7.41263 79.7256 9.98038 80.0076C12.3823 80.3296 15.5295 80.7323 17.0618 81.3768C18.5942 82.0213 19.4241 83.1482 19.4241 85.0008C19.4241 87.9 17.6021 90.6786 10.7274 90.6786C4.01854 90.6786 2.27937 87.2559 2.27937 83.2289H0.0824567C0.0824567 87.9406 2.02888 92.6518 10.7256 92.6518" fill="white"/>
<path d="M89.3559 127.999C84.9889 128.005 80.7468 126.543 77.3123 123.848C74.2333 121.354 71.9266 118.038 70.6609 114.285C69.6881 112.929 68.8855 111.459 68.271 109.908C67.2299 108.691 66.3739 107.328 65.7305 105.861C64.4564 104.635 63.472 103.14 62.8489 101.486C62.8369 101.453 62.8249 101.419 62.8133 101.386C62.0212 100.686 61.2942 99.9152 60.6413 99.0838L60.6244 99.0499C60.5632 98.7978 60.5084 98.5475 60.4599 98.2989C59.7377 97.8136 59.0582 97.2677 58.4288 96.6669L58.4056 96.6304C58.267 96.2094 58.1516 95.7934 58.0526 95.3796C57.4116 95.0515 56.7976 94.6732 56.2163 94.2482L56.1976 94.2349L56.1878 94.2139C55.9443 93.6808 55.7336 93.1334 55.5567 92.5748C55.0226 92.3611 54.5037 92.1115 54.0033 91.8278L53.9739 91.8011C53.5899 91.2352 53.2484 90.6416 52.9524 90.0252C52.5465 89.8453 52.1543 89.6362 51.7788 89.3993C50.8671 88.7505 50.0986 87.9211 49.5213 86.9629C44.8351 85.3362 41.4129 80.6886 40.3557 76.3618C40.2531 76.2216 40.1536 76.0815 40.057 75.9413C39.8984 75.8118 39.7426 75.6818 39.5899 75.5511C39.3712 75.427 39.1556 75.3014 38.9432 75.1743C38.668 75.0555 38.3956 74.9348 38.1258 74.8121C37.7933 74.6972 37.4627 74.5799 37.134 74.4603C36.7742 74.3572 36.416 74.2518 36.0594 74.144L36.0202 74.1324L35.3779 73.973C35.1876 73.9249 34.9969 73.8754 34.807 73.8251C34.77 73.8175 34.733 73.809 34.696 73.801C34.3284 73.7232 33.9612 73.6398 33.5942 73.5507C30.6721 72.9872 27.4964 72.0581 25.4787 69.7027C23.2113 67.056 23.268 63.7536 25.6525 59.6067C27.179 56.7955 28.561 53.9084 29.7932 50.9565C32.393 45.0444 35.3396 38.3466 39.6684 33.6442C44.0328 28.9045 49.2088 26.8364 55.4319 27.3638C54.4602 19.796 54.4009 11.871 57.5976 9.56415C58.6102 8.83276 59.897 8.71784 61.4445 9.22117C61.901 8.82294 62.4363 8.52532 63.0156 8.3477C63.9735 8.08452 64.9852 8.08791 65.9413 8.3575C66.3944 8.03018 66.8968 7.77699 67.4295 7.6074C68.4281 7.31022 69.4848 7.26553 70.5049 7.47734C70.9268 7.21422 71.3779 7.00121 71.8492 6.84261C72.9103 6.49973 74.0363 6.40629 75.1394 6.56956C76.5769 5.80387 78.2101 5.48349 79.8306 5.64932C81.3223 4.88999 82.9902 4.54334 84.6612 4.64533C86.1916 3.92976 87.8663 3.5763 89.5555 3.61239C91.1355 2.91795 92.8387 2.54703 94.5645 2.52155C96.2091 1.83328 97.9613 1.43729 99.7423 1.35142C101.892 0.491962 104.181 0.0347811 106.496 0.00267255C106.593 0.00267255 106.691 0 106.789 0C113.746 0 123.169 4.3469 127.148 11.7592C130.481 17.9693 129.02 24.0084 127.606 29.847C126.512 34.3658 125.459 38.7154 126.522 43.0275C126.737 43.3157 126.939 43.6088 127.126 43.9081C128.137 44.8738 129.035 45.9521 129.8 47.1219C130.806 48.0732 131.697 49.1396 132.454 50.2991C133.459 51.2439 134.347 52.3056 135.1 53.4616C136.096 54.3982 136.977 55.4494 137.725 56.5934C139.097 57.8423 140.222 59.3383 141.041 61.0031C143.69 66.9134 138.338 70.9218 136.635 72.0095C133.506 74.0086 130.33 74.8901 127.176 74.6375C126.378 74.8053 125.562 74.875 124.747 74.8451C123.848 75.0514 122.924 75.134 122.003 75.0905L121.932 75.0865C121.324 75.2592 120.699 75.3638 120.068 75.3983C119.775 75.4152 119.482 75.4195 119.189 75.4112C118.846 75.5353 118.494 75.6341 118.137 75.707C117.568 75.8182 116.993 75.8883 116.414 75.9168C116.346 75.9493 116.28 75.98 116.21 76.0099C115.385 76.356 114.53 76.6282 113.657 76.8232C112.94 77.3757 112.185 77.8776 111.399 78.3252C111.128 78.7661 110.818 79.182 110.473 79.5679C110.254 79.8102 110.008 80.0891 109.739 80.4004C109.705 80.5154 109.67 80.6298 109.633 80.7452C109.381 81.5305 109.076 82.3389 108.731 83.1603C108.509 86.7163 107.508 90.1802 105.801 93.3079C104.387 95.8784 102.471 98.139 100.167 99.9555C100.83 100.677 101.538 101.404 102.226 102.112C105.223 105.191 108.321 108.376 108.555 111.776C108.702 113.917 107.627 115.575 106.416 117.224C103.655 120.981 100.274 125.15 95.0846 127.048C93.2446 127.694 91.3062 128.016 89.3559 127.999ZM71.0344 114.795C72.3203 118.287 74.5277 121.367 77.4228 123.707C83.1689 128.247 90.4015 128.573 95.02 126.882C100.163 125.001 103.523 120.856 106.269 117.119C107.46 115.498 108.518 113.871 108.375 111.789C108.146 108.454 105.071 105.294 102.097 102.237C101.403 101.525 100.692 100.794 100.024 100.067C99.9816 100.1 99.9389 100.133 99.8965 100.165C100.431 100.813 101.001 101.464 101.556 102.099C103.771 104.632 106.061 107.252 106.526 109.978C106.58 110.296 106.61 110.617 106.615 110.94C106.64 112.894 105.531 114.429 104.393 115.834C101.376 119.587 98.2741 123.066 93.5175 124.392C88.3602 125.83 81.7293 124.118 76.2114 119.926C74.2575 118.462 72.5154 116.735 71.0344 114.795ZM70.8205 114.202C72.362 116.33 74.2168 118.211 76.3219 119.784C81.7966 123.944 88.3682 125.644 93.472 124.22C98.177 122.909 101.258 119.454 104.256 115.723C105.374 114.342 106.463 112.837 106.44 110.942C106.435 110.629 106.405 110.316 106.351 110.007C105.895 107.331 103.622 104.73 101.424 102.215C100.866 101.578 100.294 100.923 99.7557 100.272L99.6242 100.37C100.031 100.939 100.463 101.51 100.884 102.066C102.638 104.386 104.449 106.784 104.664 109.246C104.69 109.531 104.696 109.817 104.681 110.103C104.583 111.851 103.489 113.205 102.378 114.442C99.8145 117.293 96.6245 120.846 91.9597 121.732C86.0563 122.854 79.5435 119.238 75.1181 116.003C73.3787 114.763 71.727 113.405 70.1747 111.938C70.35 112.703 70.5656 113.459 70.8205 114.202ZM70.1033 111.622C71.7035 113.158 73.4141 114.574 75.2215 115.86C79.6189 119.073 86.0852 122.667 91.925 121.558C96.5305 120.682 99.6986 117.156 102.244 114.324C103.334 113.11 104.406 111.785 104.502 110.092C104.516 109.815 104.51 109.537 104.485 109.26C104.277 106.85 102.479 104.473 100.741 102.173C100.32 101.616 99.8876 101.045 99.4798 100.475C99.4352 100.508 99.3884 100.542 99.3425 100.574C99.6228 101.056 99.9184 101.537 100.207 102.007C101.504 104.12 102.846 106.305 102.8 108.516C102.797 108.768 102.778 109.019 102.743 109.268C102.517 110.82 101.394 112.034 100.358 113.051C97.684 115.675 94.6532 118.649 90.3971 119.073C85.1992 119.588 79.9059 116.212 74.0203 112.08C73.3593 111.619 72.7157 111.179 72.0917 110.752C71.2658 110.187 70.472 109.644 69.7187 109.109C69.798 109.954 69.9264 110.794 70.1033 111.623V111.622ZM69.6973 108.878C70.4858 109.441 71.3206 110.011 72.1933 110.607C72.8173 111.034 73.4606 111.477 74.1232 111.936C79.9799 116.047 85.2486 119.411 90.3801 118.897C94.5756 118.48 97.5819 115.529 100.234 112.925C101.249 111.929 102.35 110.741 102.568 109.244C102.601 109.002 102.62 108.758 102.622 108.514C102.667 106.355 101.34 104.193 100.056 102.1C99.7695 101.634 99.4762 101.156 99.1972 100.677L99.055 100.776C99.2132 101.155 99.3786 101.534 99.5404 101.901C100.422 103.91 101.255 105.808 100.936 107.789C100.903 107.994 100.864 108.214 100.806 108.435C100.463 109.729 99.4178 110.751 98.3387 111.661C95.7144 113.877 92.7397 116.388 88.8348 116.413H88.7742C84.4664 116.413 80.5031 113.562 76.3081 110.541C75.2148 109.754 74.0844 108.941 72.9234 108.158C71.7476 107.373 70.6636 106.692 69.6206 106.047C69.601 106.929 69.6206 107.822 69.6871 108.726L69.6973 108.878ZM69.6242 105.842C70.6721 106.49 71.8176 107.208 73.021 108.012C74.1847 108.796 75.3159 109.611 76.4084 110.399C80.5789 113.401 84.5203 116.237 88.7707 116.237H88.8295C92.6702 116.213 95.4911 113.832 98.2197 111.527C99.2039 110.696 100.283 109.701 100.629 108.392C100.685 108.178 100.723 107.963 100.756 107.763C101.068 105.834 100.244 103.96 99.3741 101.975C99.2168 101.619 99.0559 101.25 98.9017 100.881C98.8535 100.914 98.8045 100.947 98.7559 100.98C98.8067 101.223 98.8598 101.464 98.9119 101.704C99.3131 103.545 99.6946 105.283 99.0648 107.068L99.0492 107.113C98.9922 107.273 98.9333 107.439 98.8611 107.607C98.3838 108.716 97.306 109.577 96.3143 110.273C93.7666 112.06 90.8766 114.089 87.2686 113.754C83.4992 113.409 80.3565 110.859 77.0293 108.155C75.3663 106.756 73.6281 105.448 71.8225 104.238C71.1347 103.797 70.4648 103.402 69.8127 103.041C69.7205 103.962 69.6514 104.897 69.6242 105.842ZM68.6396 110.338C69.1408 111.508 69.7517 112.629 70.4639 113.685C70.2598 113.037 70.0855 112.379 69.9411 111.712C69.4725 111.251 69.0387 110.793 68.6396 110.338ZM69.8341 102.848C70.5098 103.221 71.2056 103.63 71.9205 104.089C73.7316 105.302 75.475 106.614 77.1429 108.017C80.4483 110.701 83.5705 113.237 87.286 113.577C90.8365 113.899 93.6909 111.896 96.2132 110.127C97.1844 109.446 98.2393 108.605 98.6989 107.537C98.7689 107.374 98.8264 107.211 98.8825 107.053L98.8986 107.008C99.511 105.271 99.1361 103.557 98.739 101.742C98.6918 101.524 98.6436 101.306 98.5973 101.085C98.5496 101.117 98.5014 101.148 98.4537 101.179L98.4488 101.26C98.3414 103.024 98.2402 104.689 97.1937 106.347L97.1202 106.464C97.056 106.568 96.99 106.673 96.9178 106.78C96.2889 107.706 95.1844 108.391 94.2926 108.883C91.5501 110.398 88.8299 111.707 85.7059 111.093C82.2432 110.414 79.5997 107.927 76.802 105.294C74.9429 103.545 73.021 101.737 70.7265 100.316C70.5482 100.207 70.3699 100.101 70.1956 100C70.0619 100.939 69.9353 101.888 69.8341 102.848ZM68.4261 109.816C68.8638 110.339 69.3465 110.865 69.8743 111.394C69.7136 110.595 69.5975 109.787 69.5266 108.975C68.8986 108.526 68.2991 108.08 67.7335 107.631C67.9164 108.374 68.1478 109.104 68.4261 109.816ZM70.2228 99.8098C70.4204 99.9232 70.6193 100.042 70.8196 100.166C73.1306 101.596 75.0588 103.411 76.9259 105.166C79.7049 107.78 82.3297 110.25 85.7425 110.92C88.8059 111.523 91.4957 110.226 94.2079 108.729C95.0824 108.246 96.1641 107.576 96.7721 106.68C96.8429 106.576 96.9058 106.472 96.9704 106.371L97.0448 106.252C98.0575 104.649 98.1591 103.093 98.2697 101.298L98.1466 101.375C97.5389 102.989 96.5711 104.443 95.3168 105.627C95.2691 105.671 95.2214 105.716 95.1729 105.76C95.1069 105.823 95.0391 105.888 94.9696 105.951C94.1685 106.622 93.2537 107.143 92.2686 107.492C89.8996 108.432 87.1224 109.357 84.1437 108.43C80.8851 107.415 78.5821 104.893 76.1441 102.224C74.4682 100.39 72.7424 98.5007 70.6244 97.0317C70.5419 97.6299 70.455 98.2236 70.3694 98.8094C70.3198 99.1423 70.2709 99.4757 70.2228 99.8098ZM66.0777 106.201C66.617 107.337 67.2878 108.406 68.0762 109.386C67.8496 108.752 67.6599 108.105 67.508 107.45C67.0012 107.04 66.5229 106.626 66.0768 106.201H66.0777ZM67.668 107.349C68.2474 107.816 68.8616 108.277 69.5088 108.742C69.4396 107.81 69.4181 106.875 69.4441 105.941L68.7952 105.54C68.2728 105.219 67.7674 104.907 67.2798 104.6C67.315 105.162 67.3751 105.726 67.4656 106.295C67.52 106.647 67.5872 106.999 67.6671 107.349H67.668ZM70.6498 96.8353C72.8177 98.3221 74.5721 100.242 76.2742 102.106C78.6953 104.757 80.9823 107.261 84.195 108.261C87.118 109.171 89.86 108.256 92.2009 107.328C93.1657 106.987 94.062 106.477 94.8475 105.822C94.9166 105.759 94.9812 105.695 95.0481 105.633C95.0971 105.589 95.1457 105.541 95.1938 105.496C96.3713 104.391 97.2891 103.039 97.881 101.537L97.8404 101.561C96.5736 102.919 95.0823 104.049 93.4319 104.902L93.2639 104.991C93.1813 105.036 93.0973 105.08 93.012 105.125C92.1311 105.564 91.1996 105.893 90.2384 106.105C88.1373 106.595 85.3676 107 82.5779 105.768C79.4954 104.408 77.4478 101.81 75.2794 99.0602C73.9897 97.317 72.543 95.6956 70.9573 94.2162C70.8758 95.0928 70.7675 95.9685 70.6498 96.8353ZM65.8807 105.759C66.3629 106.242 66.8858 106.708 67.4456 107.169C67.3861 106.887 67.3335 106.605 67.2878 106.323C67.1916 105.713 67.1266 105.099 67.093 104.483C66.3906 104.04 65.722 103.606 65.0846 103.161C65.1295 103.394 65.1815 103.627 65.2406 103.861C65.4056 104.509 65.6192 105.143 65.8798 105.759L65.8807 105.759ZM70.9796 93.9975C72.614 95.5032 74.1011 97.1611 75.4207 98.9488C77.5744 101.681 79.6104 104.261 82.6506 105.604C85.3926 106.815 88.1244 106.414 90.1992 105.93C91.1457 105.722 92.063 105.398 92.9305 104.966C93.0156 104.921 93.099 104.877 93.181 104.832L93.3494 104.743C94.793 103.998 96.1144 103.036 97.2682 101.893C95.4697 102.898 93.547 103.663 91.5492 104.168C87.5057 105.201 83.961 104.842 81.0148 103.099C78.1244 101.392 76.1985 98.5791 74.3358 95.8589C73.3375 94.3314 72.2386 92.8719 71.0465 91.4902C71.0732 92.3264 71.0505 93.1634 70.9787 93.997L70.9796 93.9975ZM67.2659 104.381C67.7879 104.709 68.3281 105.042 68.8888 105.388C69.0724 105.501 69.2595 105.616 69.4499 105.734C69.4802 104.794 69.5507 103.866 69.6452 102.948C68.8291 102.503 68.0406 102.108 67.2865 101.748C67.2305 102.625 67.2233 103.503 67.2651 104.38L67.2659 104.381ZM63.0936 101.631C63.6558 103.042 64.4907 104.328 65.5508 105.417C65.3601 104.922 65.1989 104.416 65.0681 103.902C64.9924 103.605 64.9285 103.308 64.8765 103.012C64.2516 102.569 63.6588 102.115 63.0927 101.63L63.0936 101.631ZM71.0385 91.2131C72.2942 92.6446 73.4453 94.1644 74.4829 95.7609C76.3348 98.4655 78.2492 101.261 81.1053 102.949C84.0091 104.664 87.5084 105.017 91.5055 103.998C93.6938 103.444 95.7901 102.576 97.7286 101.42C97.7923 101.353 97.8556 101.284 97.9193 101.214C97.9831 101.144 98.045 101.076 98.1074 101.005C98.1778 100.835 98.2493 100.661 98.3218 100.484C98.3358 100.299 98.3529 100.098 98.3731 99.8811C98.3396 99.6637 98.3084 99.4414 98.2808 99.2129C98.1982 98.9573 98.1208 98.6997 98.0486 98.4401C97.9297 98.1693 97.817 97.8966 97.7103 97.6219C97.5784 97.3692 97.4513 97.1145 97.3292 96.858C97.1242 96.5141 96.9284 96.1674 96.7418 95.8179C92.5151 89.1423 91.5528 81.4196 94.6148 76.2473C96.8599 72.4549 101.195 70.1534 106.292 69.6639C106.186 69.3729 106.08 69.0837 105.974 68.7962C104.679 65.2814 103.341 61.6467 103.973 58.531C104.657 55.168 107.467 53.1525 110.185 51.2033C110.965 50.643 111.772 50.0639 112.511 49.4662C116.749 46.0266 120.153 39.7608 116.995 32.4897C116.835 32.1182 116.656 31.7487 116.46 31.381C115.89 30.675 115.359 29.9384 114.869 29.1744C113.992 28.1682 113.185 27.1807 112.401 26.2226C112.193 25.9666 111.985 25.7132 111.777 25.4622C108.463 22.4288 104.528 20.1535 100.244 18.7947C95.7884 17.4362 91.1054 16.9833 86.4717 17.4629C85.6062 19.4217 84.5959 21.3135 83.4493 23.1224C81.6562 25.8395 77.7794 30.2381 71.3705 30.4964C70.5599 30.7195 69.7298 30.8641 68.8915 30.928C68.3031 31.1324 67.7001 31.2922 67.0877 31.406C66.8797 31.4446 66.6717 31.4783 66.4637 31.5071C66.1858 31.6351 65.9036 31.7528 65.6168 31.8603C65.1305 32.042 64.6344 32.1964 64.1308 32.3227C63.5406 32.7108 62.9264 33.0612 62.2918 33.3716C61.7368 34.2487 61.0048 35.0004 60.1426 35.5787C59.9045 36.2132 59.5864 36.8148 59.1959 37.3689C59.0764 38.3871 58.9646 39.1301 58.6829 39.5042C58.6671 39.6144 58.6523 39.7255 58.6383 39.8374C58.6428 39.8784 58.6468 39.9185 58.6508 39.9581C58.7025 40.4677 58.743 40.8695 58.7564 41.1256C58.798 41.6993 58.8711 42.2703 58.9753 42.836C59.0047 43.0142 59.0341 43.1924 59.0617 43.3705C59.671 44.9135 60.279 46.5014 60.3543 48.0029C60.3908 49.4777 59.9937 50.9308 59.2124 52.1824C57.2223 55.6469 53.7595 57.9849 50.4114 60.2445C49.7584 60.6855 49.0831 61.1412 48.4315 61.5973C44.6733 64.2284 40.7595 67.6176 40.2304 72.8028C40.1772 73.3468 40.1727 73.8945 40.217 74.4393C44.7561 75.0628 49.3255 75.4412 53.9053 75.5729L54.2833 75.5832C57.2535 75.6616 60.3244 75.7431 63.2866 77.286C66.1976 78.8005 68.4288 81.4062 69.7388 84.8186C70.5105 86.867 70.949 89.0257 71.0376 91.2127L71.0385 91.2131ZM65.0392 102.91C65.6863 103.367 66.3661 103.812 67.0819 104.264C67.0454 103.398 67.0557 102.531 67.1126 101.666C66.5105 101.381 65.9284 101.117 65.3685 100.862L64.8377 100.62C64.8451 101.387 64.9121 102.152 65.0383 102.909L65.0392 102.91ZM62.9666 101.284C63.5638 101.808 64.1873 102.302 64.8346 102.763C64.7205 102.026 64.661 101.282 64.6563 100.536C63.9253 100.201 63.2216 99.8713 62.5423 99.5198C62.628 100.12 62.7698 100.71 62.9657 101.283L62.9666 101.284ZM67.2985 101.557C68.0562 101.917 68.8456 102.309 69.6657 102.756C69.7682 101.795 69.8961 100.845 70.0303 99.9051C69.2411 99.4582 68.4261 99.0585 67.5895 98.7083C67.4679 99.6468 67.3609 100.596 67.2976 101.557H67.2985ZM64.8359 100.424L65.4425 100.7C65.9832 100.946 66.5448 101.201 67.1251 101.474C67.1906 100.518 67.2985 99.5724 67.4188 98.637C66.5862 98.2949 65.7759 98.0134 64.9794 97.7626C64.8863 98.6465 64.8381 99.5344 64.835 100.423L64.8359 100.424ZM98.2826 101.077L98.2795 101.08H98.2821L98.2826 101.077ZM60.7938 98.9898C61.3729 99.7258 62.0112 100.413 62.7023 101.045C62.5416 100.515 62.4252 99.972 62.3542 99.4223C61.7748 99.1172 61.2163 98.7951 60.6703 98.4383C60.7077 98.6213 60.7493 98.8049 60.7951 98.9893L60.7938 98.9898ZM98.4747 100.856L98.4684 100.958L98.5576 100.898C98.55 100.861 98.542 100.823 98.5344 100.785L98.4747 100.856ZM98.6828 100.611C98.695 100.67 98.7071 100.73 98.7189 100.791C98.7573 100.766 98.796 100.739 98.8344 100.713C98.8076 100.65 98.7818 100.586 98.7564 100.523L98.6828 100.611ZM98.8856 100.366C98.9182 100.447 98.9507 100.528 98.9841 100.61L99.1067 100.525C99.0577 100.44 99.01 100.356 98.9627 100.271L98.8856 100.366ZM99.0831 100.122C99.1389 100.221 99.1956 100.321 99.2529 100.42C99.2939 100.391 99.3354 100.361 99.3759 100.331C99.3033 100.229 99.2315 100.126 99.1606 100.024L99.0831 100.122ZM98.6133 100.24C98.6218 100.288 98.6307 100.337 98.6396 100.384L98.6811 100.334C98.6637 100.29 98.6463 100.245 98.6294 100.2L98.6133 100.24ZM62.5151 99.3042C63.2028 99.6646 63.9155 100.001 64.6572 100.341C64.6572 99.4561 64.7196 98.5778 64.8056 97.7074C64.2088 97.5217 63.6196 97.3511 63.0352 97.1818C62.8329 97.1224 62.6316 97.063 62.4313 97.0036C62.3976 97.7715 62.4253 98.5408 62.5142 99.3042H62.5151ZM99.2761 99.8771C99.3557 99.9929 99.437 100.109 99.5199 100.226L99.642 100.137C99.544 100.018 99.4477 99.8992 99.3532 99.7804L99.2761 99.8771ZM98.7274 99.9563C98.7546 100.029 98.7822 100.102 98.8108 100.175L98.8691 100.103C98.8304 100.033 98.7916 99.9621 98.7537 99.8913L98.7274 99.9563ZM99.4651 99.6325C99.5694 99.7638 99.6757 99.8953 99.7842 100.027C99.8239 99.9964 99.864 99.9661 99.9036 99.935C99.7811 99.8013 99.6603 99.6677 99.5413 99.5341L99.4651 99.6325ZM98.8411 99.6748C98.8901 99.7675 98.9397 99.86 98.9899 99.9523L99.0555 99.8695C98.9939 99.7804 98.9329 99.6878 98.8727 99.5964L98.8411 99.6748ZM99.6514 99.3875L99.6616 99.3991C99.7873 99.5411 99.9151 99.683 100.045 99.8249C102.336 98.022 104.24 95.7769 105.644 93.2233C107.255 90.275 108.232 87.0228 108.512 83.6752C107.421 86.1825 106.01 88.7815 104.723 91.1543C103.229 94.0149 101.533 96.7662 99.65 99.3875H99.6514ZM98.9534 99.3947C99.0253 99.5048 99.0978 99.6141 99.1709 99.7225L99.2395 99.6334C99.1548 99.5256 99.0702 99.4169 98.9877 99.3083L98.9534 99.3947ZM67.6145 98.5239C68.4518 98.873 69.268 99.2709 70.0588 99.7154C70.1034 99.4036 70.1479 99.0944 70.1925 98.7849C70.2816 98.1706 70.3735 97.5479 70.4599 96.9203C70.1901 96.7377 69.9139 96.5624 69.6313 96.3943C69.1058 96.0847 68.5636 95.8043 68.0072 95.5542C67.9323 96.1649 67.8503 96.7707 67.7692 97.3675C67.7157 97.7509 67.6641 98.1363 67.6145 98.5239ZM98.5964 99.5889L98.6374 99.706L98.6458 99.6846L98.5964 99.5889ZM99.0657 99.1163C99.1602 99.241 99.2551 99.3648 99.3523 99.4882C99.3755 99.4575 99.3991 99.4272 99.4223 99.396C99.314 99.2731 99.2079 99.1501 99.1022 99.0254L99.0657 99.1163ZM98.62 99.2423C98.657 99.3167 98.6949 99.392 98.7328 99.465L98.7537 99.4125C98.7091 99.3448 98.6668 99.2788 98.6236 99.2085L98.62 99.2423ZM99.1762 98.8379C99.293 98.9769 99.4111 99.114 99.5328 99.2508C101.4 96.6448 103.081 93.9107 104.564 91.0688C105.934 88.5468 107.443 85.7682 108.555 83.1202C108.585 82.6667 108.604 82.2089 108.612 81.7496C106.686 84.1146 104.968 86.6414 103.476 89.3018C101.849 92.3897 100.413 95.5744 99.1758 98.8379H99.1762ZM98.6574 98.927C98.7158 99.0218 98.7751 99.1158 98.8357 99.2103L98.8625 99.143C98.7961 99.0539 98.7288 98.9648 98.6641 98.8757L98.6574 98.927ZM60.6217 98.1911C61.1744 98.5604 61.7422 98.8927 62.3284 99.2054C62.2494 98.4579 62.2257 97.7056 62.2575 96.9546C61.6161 96.7653 60.9845 96.572 60.3614 96.3533C60.4194 96.9626 60.5023 97.5729 60.6204 98.1916L60.6217 98.1911ZM98.6967 98.617C98.7769 98.7283 98.8576 98.8397 98.9396 98.9488C98.9503 98.923 98.9605 98.8967 98.9712 98.8704C98.8821 98.7635 98.7937 98.6563 98.706 98.5488L98.6967 98.617ZM98.7412 98.3052C98.8424 98.4312 98.9445 98.5559 99.0483 98.6811C100.278 95.4411 101.705 92.2795 103.322 89.214C104.856 86.4801 106.628 83.8866 108.617 81.4637C108.619 81.0479 108.612 80.6301 108.596 80.2102C106.014 82.1762 103.851 84.6376 102.234 87.4502C100.424 90.8283 99.2392 94.5058 98.7381 98.3052H98.7412ZM98.4292 98.5475C98.4555 98.592 98.4823 98.6366 98.5086 98.6811V98.6624L98.4292 98.5475ZM64.9982 97.5791C65.796 97.8303 66.6085 98.1105 67.4429 98.4517C67.4915 98.0798 67.5418 97.7101 67.5918 97.3417C67.6747 96.7279 67.7594 96.1052 67.836 95.4771C67.0254 95.1263 66.1892 94.8376 65.3347 94.6135C65.2861 95.0718 65.2317 95.5275 65.1787 95.9774C65.1145 96.5092 65.0517 97.0437 64.9968 97.5809L64.9982 97.5791ZM98.3548 98.1288C98.4176 98.2205 98.4818 98.3123 98.546 98.4036L98.5522 98.3564C98.4854 98.2726 98.419 98.1885 98.353 98.1038L98.3548 98.1288ZM98.3325 97.7858C98.4167 97.8954 98.501 98.0045 98.587 98.1132C99.0998 94.3501 100.282 90.7089 102.077 87.3615C103.727 84.4919 105.941 81.985 108.584 79.9915C108.562 79.5105 108.527 79.0275 108.479 78.5426C105.346 80.1123 102.742 82.5646 100.989 85.5968C98.731 89.5784 98.119 94.1235 98.3312 97.7876L98.3325 97.7858ZM58.5688 96.552C59.1435 97.0987 59.7605 97.5993 60.414 98.049C60.3066 97.4557 60.2308 96.87 60.176 96.2865C59.5235 96.0557 58.8846 95.7881 58.2626 95.4847C58.3495 95.8388 58.4502 96.1947 58.5665 96.5537L58.5688 96.552ZM97.9416 97.2624C98.0076 97.3515 98.0753 97.4433 98.1413 97.5328C97.9715 93.8865 98.6124 89.4261 100.834 85.509C102.617 82.4265 105.27 79.9375 108.46 78.3528C108.408 77.8519 108.343 77.3487 108.263 76.8433C104.69 78.053 101.668 80.5012 99.7445 83.7447C97.5574 87.5597 96.9285 92.6006 97.9403 97.2642L97.9416 97.2624ZM62.4389 96.8206C62.6533 96.8838 62.8686 96.9457 63.0852 97.0085C63.6592 97.1751 64.2378 97.343 64.8234 97.5248C64.8774 96.9987 64.9393 96.4758 65.0017 95.956C65.0557 95.4981 65.1105 95.0344 65.1604 94.5676C64.3109 94.3507 63.4752 94.1952 62.6502 94.0634C62.6363 94.2242 62.6216 94.3845 62.6056 94.5444C62.5369 95.3168 62.4692 96.0736 62.4376 96.8223L62.4389 96.8206ZM97.5882 96.7675C97.6212 96.8121 97.6532 96.8606 97.6862 96.907C96.7837 92.3124 97.4442 87.3998 99.5899 83.6556C101.541 80.3664 104.608 77.886 108.234 76.6651C108.152 76.1564 108.056 75.6463 107.946 75.1346C103.937 76.1079 100.458 78.515 98.501 81.8922C96.1146 86.0154 95.8316 91.6554 97.5868 96.7693L97.5882 96.7675ZM60.3432 96.1569C60.9743 96.3796 61.6143 96.5774 62.2646 96.7693C62.2963 96.017 62.3636 95.2687 62.43 94.5284C62.4448 94.3651 62.4597 94.2007 62.4745 94.0353C62.0262 93.9658 61.5804 93.9017 61.1374 93.8393C60.8254 93.7948 60.5183 93.7502 60.2117 93.7057C60.2348 94.5329 60.2687 95.3449 60.3418 96.1587L60.3432 96.1569ZM68.0286 95.3671C68.6093 95.6255 69.1747 95.9166 69.7223 96.2393C69.9835 96.3937 70.2385 96.5545 70.4875 96.7217C70.6061 95.8442 70.7144 94.9573 70.7955 94.071C70.0948 93.4661 69.3374 92.93 68.534 92.4701C68.4489 92.4224 68.3642 92.3761 68.279 92.3307C68.2737 92.5834 68.2636 92.8316 68.2487 93.0754C68.1966 93.8442 68.1182 94.6081 68.0272 95.3689L68.0286 95.3671ZM107.522 73.4059C103.116 74.1743 99.3059 76.5306 97.2557 80.0428C94.7062 84.4115 94.7699 90.6024 97.1959 96.1413C95.6774 91.1659 96.042 85.7865 98.345 81.8053C100.327 78.3853 103.85 75.948 107.906 74.9636C107.792 74.4451 107.664 73.9259 107.522 73.4059ZM58.2069 95.2576C58.8393 95.575 59.4905 95.8536 60.1568 96.0918C60.0873 95.2901 60.0548 94.4928 60.0303 93.6799C59.2939 93.5681 58.5683 93.4442 57.8463 93.279C57.9425 93.94 58.0522 94.597 58.2069 95.2576ZM65.3525 94.4358C66.2077 94.6587 67.0449 94.9456 67.857 95.2941C67.9461 94.5551 68.0201 93.8104 68.0678 93.067C68.0841 92.797 68.0948 92.5219 68.0999 92.2416C67.2822 91.8274 66.4175 91.5133 65.5246 91.3062C65.5281 91.5711 65.5262 91.8327 65.5188 92.091C65.4974 92.8732 65.4327 93.6589 65.3525 94.4358ZM106.978 71.6135C102.224 72.2028 98.1743 74.5133 96.013 78.1902C93.3102 82.787 93.6454 89.2875 96.6165 95.1885C94.5894 89.8706 94.6821 84.101 97.1032 79.9523C99.1776 76.401 103.027 74.0153 107.476 73.234C107.353 72.7939 107.22 72.353 107.075 71.9111C107.043 71.8128 107.011 71.7136 106.978 71.6135ZM56.338 94.1182C56.8652 94.5023 57.4198 94.8473 57.9974 95.1507C57.8539 94.511 57.7482 93.8759 57.6604 93.2353C57.0181 93.0837 56.3863 92.8903 55.7693 92.6563C55.9315 93.1538 56.1213 93.6418 56.338 94.1182ZM62.6626 93.887C63.4885 94.0184 64.3251 94.1738 65.176 94.3903C65.2549 93.626 65.3177 92.8536 65.3391 92.083C65.3469 91.814 65.3483 91.5408 65.3436 91.2634C64.502 91.0848 63.647 90.9761 62.7874 90.9383C62.7874 90.9917 62.7901 91.0452 62.791 91.0986C62.7959 92.0296 62.7536 92.9603 62.6644 93.887H62.6626ZM60.2023 93.5262C60.5191 93.5734 60.8379 93.6194 61.1588 93.6643C61.5987 93.7271 62.0409 93.7899 62.4861 93.8594C62.5746 92.9426 62.6168 92.0219 62.6127 91.1009C62.6127 91.0443 62.6127 90.9873 62.6091 90.9303C61.7703 90.8942 60.9382 90.9049 60.1132 90.9196C60.1484 91.6078 60.1671 92.2879 60.1849 92.9525C60.1934 93.1445 60.1983 93.3355 60.2041 93.5262H60.2023ZM68.2782 92.1329C68.3909 92.1922 68.5046 92.2532 68.6173 92.3173C69.3942 92.7612 70.1282 93.276 70.8102 93.8549C70.8815 93.0085 70.9056 92.1588 70.8825 91.3098C70.0514 90.3911 69.1022 89.5865 68.0598 88.9169C68.217 89.9816 68.2906 91.0568 68.2799 92.1329H68.2782ZM106.353 69.8363C101.291 70.3102 96.9882 72.5832 94.7641 76.3395C92.0284 80.9608 92.5458 87.6475 95.7612 93.7756C93.4212 88.2386 93.3481 82.3634 95.8539 78.1012C98.0379 74.3859 102.125 72.0469 106.916 71.4434C106.741 70.9116 106.549 70.3717 106.354 69.8363H106.353ZM57.8222 93.0901C58.5483 93.2594 59.2815 93.3854 60.0249 93.499C60.0196 93.3209 60.0147 93.1391 60.0098 92.9569C59.9915 92.2924 59.9728 91.6113 59.9376 90.9227H59.8841C59.101 90.937 58.3299 90.9516 57.5699 90.9303C57.5884 91.0909 57.6063 91.2511 57.6239 91.4109C57.6867 91.9801 57.7482 92.5369 57.8222 93.0901ZM55.7006 92.4403C56.3315 92.6858 56.9784 92.8882 57.6368 93.046C57.5664 92.5115 57.5071 91.977 57.4465 91.4314C57.4277 91.2639 57.4089 91.0952 57.3899 90.9254C56.6656 90.9051 55.9436 90.8333 55.2295 90.7107C55.3708 91.2946 55.5201 91.8688 55.7006 92.4403ZM54.109 91.683C54.5542 91.9347 55.0144 92.1589 55.4871 92.3543C55.3169 91.7993 55.1751 91.2407 55.0378 90.6746C54.4105 90.5538 53.7964 90.3724 53.2042 90.1329C53.4706 90.6695 53.773 91.1873 54.1094 91.683H54.109ZM65.5192 91.1191C66.4133 91.3235 67.28 91.6334 68.1008 92.0425C68.1074 90.9555 68.0275 89.8697 67.8619 88.7953C67.721 88.7107 67.5778 88.6291 67.4322 88.5504C66.6989 88.1521 65.9223 87.8391 65.1176 87.6176C65.3577 88.7702 65.4922 89.9422 65.5196 91.1191H65.5192ZM62.7821 90.7597C63.6421 90.7962 64.4976 90.9031 65.34 91.0795C65.31 89.8984 65.1711 88.7225 64.9251 87.5669C64.0639 87.352 63.1825 87.229 62.2954 87.1998C62.5751 88.3675 62.7387 89.5599 62.7839 90.7597H62.7821ZM68.0245 88.6858C69.0747 89.3397 70.0327 90.1309 70.8731 91.0385C70.5767 83.8623 66.7422 79.2873 63.2069 77.4468C60.2803 75.9226 57.2303 75.8433 54.2806 75.764L53.9022 75.7538C49.3293 75.6222 44.7668 75.245 40.2344 74.6237L40.2389 74.6683C44.3175 75.3416 48.4293 75.7961 52.5566 76.0299L52.9345 76.0504C55.6039 76.1952 58.3646 76.3444 61.0376 77.7782C65.3062 80.065 67.3582 84.4787 68.0263 88.684L68.0245 88.6858ZM57.5503 90.7516C58.3156 90.7735 59.092 90.7601 59.8814 90.7459H59.9282C59.9169 90.538 59.9035 90.3301 59.8881 90.1223C59.8137 89.1675 59.6622 88.2202 59.4352 87.2898C58.9258 87.3312 58.4137 87.3811 57.8966 87.431C57.6051 87.4607 57.3126 87.4888 57.019 87.5152C57.175 88.1464 57.2753 88.6969 57.3382 89.1165C57.4211 89.6661 57.4884 90.214 57.5499 90.7516H57.5503ZM61.3652 90.7276C61.777 90.7276 62.1906 90.7338 62.6056 90.7512C62.5606 89.5519 62.3964 88.36 62.1153 87.1932C61.2811 87.1753 60.4466 87.2021 59.6153 87.2733C59.8413 88.2042 59.9923 89.1517 60.0668 90.1067C60.082 90.3191 60.0953 90.5303 60.1074 90.7419C60.5237 90.7329 60.9435 90.7276 61.3647 90.7276H61.3652ZM55.1845 90.5205C55.906 90.6489 56.6359 90.7242 57.3685 90.7459C57.3079 90.218 57.2419 89.6808 57.1603 89.1401C57.0966 88.7192 56.9959 88.1646 56.8376 87.5286C56.0612 87.5976 55.2776 87.6542 54.4852 87.6684C54.5288 87.8214 54.5697 87.9713 54.6077 88.1183C54.7562 88.6867 54.8863 89.2479 55.0124 89.7909C55.0704 90.0363 55.1265 90.2791 55.184 90.5205H55.1845ZM53.0843 89.8866C53.6979 90.151 54.3376 90.3505 54.9928 90.4817C54.9416 90.2657 54.8917 90.0488 54.8408 89.8296C54.7151 89.288 54.5854 88.7276 54.4397 88.1624C54.3974 88.0016 54.3506 87.8372 54.306 87.6698C53.5574 87.6796 52.809 87.6394 52.0658 87.5495C52.1253 87.692 52.1847 87.834 52.2441 87.9753C52.5156 88.6305 52.7825 89.2666 53.0843 89.8866ZM49.8052 87.056C50.3395 87.9187 51.0434 88.6642 51.8742 89.2475C52.1828 89.4416 52.5028 89.617 52.8325 89.7726C52.565 89.2087 52.3248 88.6337 52.0774 88.0439C52.0048 87.8711 51.9317 87.6974 51.8572 87.5214C51.1611 87.4248 50.4743 87.2696 49.8043 87.0573L49.8052 87.056ZM65.0797 87.4275C65.9287 87.6502 66.7479 87.9741 67.5196 88.3922C67.6234 88.4484 67.7264 88.5063 67.8275 88.5651C67.1434 84.4502 65.1163 80.1639 60.9551 77.9332C58.3174 76.5181 55.5772 76.3698 52.927 76.2268L52.5485 76.2059C48.4315 75.9728 44.3299 75.5204 40.2612 74.8504C40.2612 74.8643 40.2643 74.8781 40.2661 74.8928C43.8829 75.6158 47.5356 76.1465 51.2087 76.4825L51.5867 76.5159C53.9561 76.7243 56.4062 76.9399 58.7876 78.2655C62.3707 80.2566 64.2864 83.8262 65.0788 87.4288L65.0797 87.4275ZM51.9816 87.3588C52.7339 87.457 53.4921 87.5016 54.2507 87.4925C53.5474 85.1224 52.2053 82.179 49.6799 80.3706C48.6246 79.6529 47.4771 79.081 46.2685 78.6704C46.0958 78.6039 45.925 78.5377 45.7559 78.4717C43.9441 77.7637 42.1756 76.9497 40.4595 76.0339V76.0388C41.7343 77.04 43.0772 77.9513 44.4785 78.7662C44.671 78.8798 44.8676 78.9916 45.0668 79.1051C45.9344 79.5701 46.7597 80.1097 47.5334 80.718C49.7294 82.5117 51.0643 85.2311 51.8769 87.1201C51.9125 87.2003 51.9468 87.28 51.9807 87.3602L51.9816 87.3588ZM40.4114 75.805C42.1618 76.7469 43.9677 77.582 45.8192 78.3056C45.988 78.3721 46.1585 78.4383 46.3309 78.5043C47.5538 78.9201 48.7148 79.4992 49.7825 80.2258C52.3649 82.0757 53.7266 85.0845 54.4343 87.4907C55.2277 87.4782 56.0144 87.4225 56.7935 87.3531C56.1976 85.056 54.8658 81.8017 51.9352 79.8837C50.5932 79.067 49.1242 78.4799 47.5887 78.1466C47.4306 78.1044 47.2734 78.0617 47.1171 78.0183C44.8407 77.3981 42.6006 76.6516 40.4074 75.7823L40.4114 75.805ZM62.257 87.0266C63.1433 87.0555 64.0243 87.1738 64.8867 87.3798C64.092 83.8502 62.2053 80.3684 58.7011 78.4223C56.3527 77.1159 53.9218 76.9016 51.5698 76.6949L51.1914 76.6611C47.5317 76.3264 43.8923 75.7988 40.2883 75.0803C40.2883 75.0937 40.2919 75.1061 40.2941 75.119C43.4478 75.894 46.6403 76.5012 49.8582 76.9381L50.2393 76.9889C52.307 77.2602 54.4455 77.5413 56.5345 78.7564C59.6831 80.5804 61.4521 83.8012 62.257 87.0266ZM40.3677 75.576C42.5884 76.4612 44.8576 77.2196 47.1643 77.8477L47.635 77.9755C49.189 78.3128 50.6755 78.9073 52.0333 79.7345C55.0245 81.6913 56.3741 85.0092 56.9745 87.3366C57.2771 87.309 57.5784 87.2796 57.8788 87.2502C58.3807 87.2012 58.8848 87.1526 59.3916 87.1116C58.7533 84.5937 57.3355 81.318 54.1905 79.3964C52.4407 78.3221 50.648 77.9809 48.9147 77.6513L48.477 77.5675C45.7375 77.0398 43.0287 76.3643 40.3623 75.544L40.3677 75.576ZM49.634 86.8137C50.3302 87.05 51.0462 87.2231 51.7734 87.3308C51.7538 87.284 51.7338 87.2373 51.7133 87.19C50.9079 85.3193 49.5863 82.6249 47.4206 80.8557C46.6542 80.2538 45.837 79.7195 44.9781 79.2588C44.7785 79.1457 44.5814 79.0334 44.3885 78.9198C43.0595 78.1459 41.7822 77.2865 40.5647 76.3471C41.34 77.3805 42.2021 78.3458 43.1418 79.2325C43.4164 79.4944 43.7007 79.7492 44.0016 80.0187C44.4165 80.3902 44.8453 80.7759 45.2861 81.212C46.4727 82.4556 47.5498 83.799 48.5055 85.2275C48.7239 85.5348 48.9352 85.8333 49.1406 86.1183C49.2993 86.3366 49.4526 86.5562 49.6042 86.7745L49.634 86.8137ZM40.3289 75.3484C43.0169 76.1787 45.7482 76.8614 48.5108 77.3934L48.9481 77.4767C50.6971 77.8098 52.5062 78.1537 54.2837 79.2454C57.4928 81.2053 58.9285 84.546 59.5716 87.0987C60.4032 87.0288 61.2378 87.0027 62.0721 87.0203C61.272 83.852 59.5315 80.6953 56.4454 78.91C54.3876 77.7132 52.2669 77.4348 50.2161 77.1653L49.8346 77.115C46.6345 76.6799 43.4595 76.0773 40.3227 75.3097L40.3289 75.3484ZM40.6333 76.7333C41.7645 80.8125 44.9808 85.0858 49.3448 86.7108C49.2307 86.5482 49.1157 86.3847 48.9976 86.2208C48.7916 85.9375 48.5795 85.6386 48.3611 85.3299C47.4109 83.9101 46.3405 82.5745 45.1618 81.3376C44.7241 80.9042 44.2966 80.5211 43.8835 80.151C43.5817 79.8806 43.2965 79.6249 43.0192 79.3608C42.1583 78.5468 41.3607 77.6684 40.6333 76.7333ZM108.792 81.5274C108.789 81.8917 108.779 82.2543 108.762 82.6151C109.017 81.9804 109.248 81.3545 109.445 80.7443C109.238 80.9893 109.02 81.2503 108.792 81.5274ZM108.766 80.0779C108.783 80.4687 108.792 80.8579 108.793 81.2454C109.07 80.9095 109.333 80.5986 109.577 80.3149C109.674 79.9822 109.759 79.6468 109.835 79.3083C109.502 79.5354 109.143 79.7915 108.766 80.0779ZM110.048 79.1639C109.988 79.4463 109.922 79.7247 109.849 80.0013C110.024 79.8009 110.188 79.6169 110.34 79.4499C110.6 79.1596 110.839 78.8511 111.055 78.5265C110.767 78.6989 110.427 78.9105 110.048 79.1639ZM108.649 78.4588C108.696 78.9289 108.732 79.3969 108.755 79.8628C109.157 79.5595 109.539 79.2909 109.888 79.0561C109.972 78.6553 110.045 78.2432 110.111 77.8139C109.633 77.9996 109.142 78.2165 108.649 78.4588ZM110.304 77.7408C110.242 78.1466 110.175 78.5359 110.099 78.9163C110.536 78.6285 110.916 78.3983 111.219 78.2232L111.268 78.1947C111.453 77.8958 111.625 77.5867 111.803 77.2629C111.32 77.3898 110.818 77.5484 110.304 77.7408ZM108.432 76.7872C108.51 77.2825 108.576 77.7769 108.628 78.2704C109.14 78.0196 109.647 77.8 110.144 77.6112C110.181 77.3631 110.217 77.1083 110.253 76.8459L110.256 76.821C110.28 76.6428 110.304 76.4621 110.328 76.2789C109.687 76.4098 109.054 76.5795 108.433 76.7872H108.432ZM112.035 77.2032C111.886 77.4802 111.74 77.747 111.589 78.0049C112.153 77.6729 112.699 77.3123 113.226 76.9248L112.823 77.0183C112.599 77.0694 112.372 77.1221 112.142 77.1765L112.035 77.2032ZM110.512 76.2424C110.486 76.4464 110.459 76.6473 110.431 76.8451L110.428 76.8696C110.397 77.0989 110.366 77.3217 110.334 77.5377C110.852 77.3469 111.38 77.1833 111.915 77.0477L112.034 76.825L112.218 76.4807C112.303 76.3226 112.391 76.1591 112.479 75.9907C111.819 76.033 111.162 76.117 110.513 76.2424H110.512ZM112.686 75.9818C112.58 76.1867 112.474 76.3827 112.374 76.5667L112.19 76.911L112.145 76.9929C112.36 76.9422 112.571 76.8936 112.78 76.8455C113.047 76.784 113.311 76.723 113.572 76.6602C113.772 76.5034 113.969 76.3417 114.167 76.1702C114.249 76.1003 114.329 76.0277 114.408 75.9533C113.943 75.9533 113.462 75.9533 112.982 75.9689C112.884 75.9729 112.786 75.9769 112.687 75.9818H112.686ZM108.117 75.0954C108.225 75.6002 108.321 76.1051 108.404 76.6099C109.042 76.3982 109.692 76.2258 110.351 76.0936C110.407 75.6482 110.457 75.1916 110.488 74.7217C109.69 74.7901 108.898 74.915 108.118 75.0954H108.117ZM114.669 75.9547C114.545 76.0782 114.418 76.1955 114.288 76.3065C114.187 76.3929 114.088 76.4762 113.988 76.5586C114.647 76.3979 115.293 76.1908 115.922 75.9391C115.509 75.9524 115.093 75.9542 114.668 75.9547H114.669ZM110.669 74.7075C110.64 75.1694 110.591 75.621 110.535 76.058C111.209 75.9315 111.89 75.8488 112.575 75.8103C112.756 75.458 112.935 75.0861 113.093 74.6968C112.286 74.6423 111.476 74.6454 110.67 74.7061L110.669 74.7075ZM113.278 74.7075C113.126 75.0928 112.954 75.458 112.781 75.7992C112.847 75.7961 112.915 75.7939 112.979 75.7916C113.526 75.776 114.071 75.7774 114.595 75.7765C114.849 75.5193 115.086 75.2456 115.304 74.9573C114.818 74.8839 114.324 74.8135 113.831 74.7596C113.646 74.7394 113.461 74.7222 113.277 74.7079L113.278 74.7075ZM115.504 74.9881C115.3 75.2637 115.08 75.5268 114.844 75.776C115.361 75.776 115.869 75.7685 116.368 75.7417C116.666 75.5966 116.954 75.4302 117.228 75.2438C116.772 75.1827 116.312 75.1101 115.842 75.0397L115.504 74.9881ZM117.49 75.2767C117.271 75.434 117.043 75.5792 116.809 75.7114C117.243 75.6773 117.674 75.6179 118.101 75.5333C118.299 75.4932 118.492 75.4442 118.681 75.3907C118.284 75.3658 117.891 75.3266 117.49 75.2767ZM40.0552 75.4491L40.1747 75.4972V75.4856L40.0552 75.4491ZM39.7651 75.1703C39.8899 75.2104 40.0147 75.2491 40.1404 75.2887L40.1364 75.2634L39.7651 75.1703ZM120.321 74.8968C120.098 75.0193 119.87 75.1328 119.631 75.2357C119.773 75.2357 119.914 75.2291 120.056 75.2215C120.498 75.1967 120.937 75.1372 121.37 75.0433C121.022 75.0095 120.672 74.9587 120.321 74.8977L120.321 74.8968ZM117.698 75.1222C118.188 75.1792 118.674 75.2201 119.158 75.2326C119.459 75.122 119.753 74.9929 120.038 74.846C119.503 74.7453 118.964 74.6233 118.43 74.4897C118.198 74.7146 117.954 74.9261 117.698 75.123L117.698 75.1222ZM115.621 74.8251L115.868 74.8629C116.403 74.9453 116.925 75.0259 117.442 75.0914C117.717 74.8898 117.978 74.6712 118.226 74.4366C117.865 74.3453 117.506 74.2505 117.149 74.156C116.837 74.0732 116.517 73.989 116.198 73.9075C116.022 74.2237 115.83 74.5303 115.621 74.826L115.621 74.8251ZM39.6332 74.9524C39.7918 74.993 39.9501 75.0331 40.1092 75.0727L40.1052 75.0429C39.9465 75.0104 39.7869 74.9783 39.6287 74.9453L39.6332 74.9524ZM122.446 74.923H122.48C123.013 74.9232 123.544 74.8803 124.07 74.7948L123.936 74.7796C123.667 74.7467 123.397 74.7051 123.127 74.6549C122.905 74.7544 122.679 74.8441 122.449 74.9239L122.446 74.923ZM107.696 73.3752C107.837 73.8913 107.964 74.4064 108.078 74.9204C108.874 74.7364 109.682 74.6092 110.496 74.54C110.524 74.0713 110.524 73.6015 110.496 73.1329C109.559 73.1433 108.624 73.2246 107.699 73.3761L107.696 73.3752ZM120.564 74.756C121.009 74.8284 121.458 74.8784 121.908 74.9057C122.215 74.8178 122.517 74.7137 122.813 74.5939C122.325 74.4937 121.836 74.3712 121.347 74.2318C121.096 74.4208 120.835 74.5965 120.565 74.7582L120.564 74.756ZM39.5052 74.7369C39.6969 74.7769 39.8881 74.8161 40.0802 74.8549L40.0762 74.8197C39.8828 74.7876 39.6896 74.7551 39.4968 74.7222L39.5052 74.7369ZM113.341 74.5324C113.51 74.5458 113.679 74.5617 113.847 74.5801C114.375 74.6384 114.903 74.7137 115.421 74.7934C115.638 74.4942 115.837 74.1826 116.017 73.8603C115.571 73.7476 115.126 73.6402 114.68 73.5485C114.347 73.479 114.015 73.4181 113.682 73.3658C113.601 73.7638 113.488 74.1546 113.345 74.5346L113.341 74.5324ZM118.576 74.3395C119.145 74.4803 119.717 74.6068 120.288 74.7092C120.579 74.5455 120.86 74.3651 121.131 74.1689C120.504 73.985 119.877 73.7792 119.259 73.5672C119.046 73.8372 118.819 74.0956 118.578 74.3413L118.576 74.3395ZM39.15 74.662L39.2721 74.6883L39.269 74.683L39.15 74.662ZM125.964 74.4839C125.778 74.5504 125.593 74.6117 125.406 74.6678C125.781 74.656 126.155 74.6229 126.526 74.5685C126.34 74.5459 126.152 74.5186 125.965 74.4865L125.964 74.4839ZM123.414 74.5222C123.596 74.5529 123.778 74.5787 123.959 74.601C124.219 74.6331 124.475 74.6531 124.727 74.6638C125.022 74.5958 125.315 74.5137 125.607 74.4175C125.151 74.3284 124.693 74.2135 124.235 74.0825C123.966 74.2456 123.693 74.393 123.418 74.5248L123.414 74.5222ZM39.3827 74.5222C39.6055 74.5605 39.8328 74.5988 40.0579 74.6362L40.0543 74.5974C39.8267 74.5663 39.599 74.5345 39.3711 74.5021L39.3827 74.5222ZM110.675 73.1311C110.702 73.5951 110.702 74.0603 110.677 74.5244C111.504 74.4638 112.334 74.462 113.16 74.519C113.309 74.1354 113.425 73.7402 113.508 73.3373C112.57 73.1998 111.624 73.1315 110.676 73.1329L110.675 73.1311ZM127.763 74.4968C130.701 74.6153 133.586 73.7396 136.536 71.8559C141.001 69.0051 142.624 64.9732 140.875 61.073C140.177 59.617 139.224 58.2969 138.063 57.1747C138.179 57.3879 138.286 57.6042 138.384 57.8237C138.883 58.8747 139.126 60.0284 139.096 61.1912C139.065 62.354 138.76 63.4931 138.206 64.5162C137.773 65.2866 137.284 66.0247 136.744 66.7246C136.377 67.2234 135.997 67.7397 135.662 68.2702C135.385 68.7385 135.148 69.2288 134.952 69.7361C134.555 70.6862 134.18 71.5833 133.357 72.0077C133.075 72.1525 132.791 72.3013 132.507 72.4532C131.008 73.3119 129.418 73.9981 127.765 74.4986L127.763 74.4968ZM38.7645 74.4139L39.1562 74.483L39.1491 74.47L38.7645 74.4139ZM121.525 74.0959C122.053 74.2429 122.581 74.3707 123.106 74.4687C123.411 74.3329 123.708 74.1814 123.997 74.0148C123.424 73.8442 122.852 73.6482 122.28 73.4358C122.048 73.6643 121.796 73.8857 121.526 74.0977L121.525 74.0959ZM126.298 74.3578C126.582 74.4023 126.866 74.434 127.149 74.4585C129.054 74.0576 130.757 73.1667 132.423 72.291C132.708 72.1409 132.992 71.9922 133.274 71.8456C134.039 71.4519 134.402 70.5842 134.787 69.663C134.986 69.1465 135.228 68.6476 135.511 68.1713C135.849 67.6368 136.231 67.1157 136.6 66.6123C137.136 65.9199 137.62 65.1898 138.051 64.4275C138.591 63.4281 138.889 62.3155 138.918 61.1798C138.948 60.0442 138.709 58.9175 138.221 57.8914C138.035 57.4776 137.821 57.0769 137.581 56.6918C137.068 56.1956 136.525 55.7079 135.965 55.2219C136.429 56.4438 136.584 57.7611 136.417 59.0572C136.25 60.3533 135.766 61.5883 135.008 62.6529C134.611 63.232 134.14 63.7848 133.685 64.3215C132.924 65.1483 132.266 66.0637 131.724 67.0479C131.239 68.0968 130.862 69.1922 130.6 70.3174C130.448 70.8835 130.305 71.4189 130.129 71.9445L130.122 71.9677L130.103 71.9837C128.977 72.9824 127.691 73.7855 126.299 74.3596L126.298 74.3578ZM39.2628 74.3061C39.5219 74.3436 39.7807 74.3799 40.0392 74.4153C39.9966 73.8726 40.0017 73.3272 40.0543 72.7855C40.5892 67.5294 44.5391 64.1064 48.3308 61.4521C48.9833 60.9951 49.659 60.539 50.3129 60.0975C53.6446 57.8477 57.0877 55.5213 59.0595 52.0928C59.8233 50.8705 60.2121 49.4512 60.1778 48.0105C60.0433 46.6672 59.7015 45.3528 59.1647 44.1139C59.2327 44.664 59.2348 45.2203 59.1709 45.7709C58.9234 47.2227 58.3377 48.5959 57.4612 49.7797C55.2674 53.0532 52.044 55.662 48.9267 58.1844C48.12 58.8374 47.286 59.5123 46.4873 60.1853C44.4164 61.8597 42.5468 63.7685 40.9159 65.8734C39.1139 68.2942 38.3803 70.3784 38.6071 72.4331C38.6996 73.0954 38.9229 73.7327 39.2641 74.3079L39.2628 74.3061ZM124.443 73.9569C124.933 74.0906 125.423 74.2073 125.907 74.2937C125.92 74.2963 125.934 74.2986 125.947 74.3003C127.423 73.7391 128.786 72.9155 129.968 71.8692C130.138 71.3552 130.28 70.83 130.428 70.275C130.693 69.1384 131.075 68.0319 131.565 66.9727C132.113 65.9757 132.779 65.0484 133.549 64.211C134.001 63.6765 134.469 63.1264 134.861 62.5567C135.635 61.4693 136.117 60.2011 136.26 58.874C136.403 57.5468 136.203 56.2051 135.677 54.9778C135.279 54.6349 134.875 54.2919 134.465 53.9458C134.202 53.7231 133.938 53.5004 133.674 53.2777C133.966 54.59 133.949 55.9521 133.626 57.257C133.302 58.5618 132.679 59.7738 131.808 60.7978C131.379 61.3229 130.89 61.8307 130.418 62.3211C129.402 63.3745 128.352 64.4645 127.788 65.84C127.203 67.2653 127.101 68.7869 127.005 70.2581C126.968 70.8113 126.93 71.3833 126.866 71.928L126.863 71.9579L126.842 71.9792C126.128 72.7367 125.322 73.4017 124.443 73.9587V73.9569ZM116.286 73.7449C116.592 73.8233 116.896 73.9039 117.196 73.9832C117.587 74.0865 117.981 74.1903 118.378 74.2901C118.627 74.0423 118.861 73.7806 119.081 73.5061L118.427 73.2799C117.881 73.0915 117.325 72.8986 116.767 72.7164C116.625 73.068 116.464 73.4118 116.286 73.7467V73.7449ZM38.3526 74.1721C38.5839 74.2073 38.8148 74.2411 39.0457 74.275C38.7273 73.7128 38.5199 73.0948 38.4346 72.4545C38.1293 69.6929 39.6256 67.3161 40.7773 65.7691C42.4155 63.653 44.2938 61.7339 46.3745 60.0503C47.1768 59.3768 48.0094 58.7011 48.8166 58.0459C51.9237 55.5319 55.1368 52.932 57.3159 49.68C58.1765 48.518 58.7522 47.1704 58.9967 45.7455C59.0723 44.9675 59.0378 44.1826 58.8941 43.4142L58.8282 43.2471L58.6606 42.8222C58.5848 42.6298 58.4885 42.3407 58.3758 41.9674C58.2886 42.501 58.1579 43.0266 57.9849 43.5389C57.4307 44.9285 56.6639 46.2237 55.7118 47.378C53.4471 50.3178 50.5896 53.014 47.8271 55.6233C46.7374 56.6517 45.6101 57.7168 44.5427 58.7737C42.5316 60.724 40.6882 62.8398 39.0319 65.0988C37.8111 66.807 36.2711 69.3878 36.9879 72.0683C37.2456 72.8796 37.7166 73.6067 38.3517 74.1738L38.3526 74.1721ZM37.4746 74.0384C37.6695 74.0681 37.8641 74.0978 38.0585 74.1275C37.4777 73.5758 37.0495 72.8835 36.8154 72.1178C36.079 69.3646 37.6448 66.7361 38.8866 64.999C40.5482 62.7309 42.3982 60.6069 44.417 58.6495C45.4867 57.5898 46.6134 56.5248 47.7041 55.4954C50.4622 52.891 53.3138 50.198 55.5705 47.2711C56.5105 46.1318 57.2682 44.8537 57.8164 43.4823C58.0238 42.8592 58.1717 42.2179 58.2581 41.567C58.0999 41.0165 57.9176 40.3323 57.7233 39.5412C57.4505 40.1065 57.1639 40.69 56.7944 41.3082C55.9529 42.6071 55.0051 43.834 53.9606 44.9763C52.1737 47.0341 50.1938 49.1379 48.2786 51.173C46.3781 53.1926 44.413 55.2812 42.5967 57.3644C40.6497 59.582 38.8294 61.9077 37.1447 64.3304C35.8664 66.1878 34.2922 68.974 35.3646 71.712C35.8119 72.6856 36.5483 73.498 37.4737 74.0389L37.4746 74.0384ZM119.375 73.4197C120.018 73.6384 120.665 73.8509 121.313 74.0371C121.586 73.8281 121.848 73.605 122.098 73.369C121.389 73.1017 120.683 72.8166 119.984 72.5298C119.796 72.8367 119.593 73.1339 119.375 73.4202L119.375 73.4197ZM36.6246 73.9021C36.773 73.9266 36.9219 73.9502 37.0703 73.9743C36.2444 73.4416 35.5934 72.6779 35.1983 71.7784C34.093 68.961 35.6957 66.1215 36.9977 64.2306C38.6863 61.8024 40.5105 59.4713 42.4616 57.2482C44.2801 55.1645 46.2466 53.0745 48.1485 51.0532C50.0624 49.0198 52.0409 46.917 53.826 44.8618C54.8632 43.7269 55.8047 42.5082 56.6411 41.2182C57.032 40.5652 57.3297 39.9479 57.6181 39.3501L57.656 39.2717C57.5102 38.6766 57.3578 38.0245 57.2022 37.3301C56.8292 37.7056 56.4574 38.1208 56.0608 38.5635C55.911 38.7305 55.7577 38.902 55.599 39.0766C54.959 39.7782 54.2387 40.5082 53.4765 41.2815C53.0598 41.7042 52.6337 42.1363 52.2085 42.5763C48.1044 46.813 44.2445 51.2794 40.6476 55.9538C38.9361 58.1934 37.171 60.6806 35.2545 63.5576C33.9303 65.5504 32.3319 68.5268 33.7391 71.3552C34.3479 72.5881 35.5081 73.3342 36.6237 73.9026L36.6246 73.9021ZM122.424 73.3004C123.019 73.5186 123.615 73.72 124.211 73.8923C125.123 73.3324 125.957 72.6546 126.691 71.8763C126.753 71.3458 126.788 70.8109 126.825 70.2452C126.924 68.7593 127.025 67.2226 127.622 65.7705C128.201 64.3643 129.263 63.2623 130.29 62.1968C130.76 61.7069 131.246 61.204 131.671 60.6824C132.553 59.6483 133.174 58.4186 133.482 57.0958C133.791 55.773 133.779 54.3956 133.447 53.0785C132.682 52.4233 131.923 51.7534 131.209 51.0572C131.388 52.4802 131.248 53.9251 130.798 55.2872C130.349 56.6492 129.602 57.8941 128.611 58.9314C128.138 59.4472 127.607 59.9452 127.095 60.4272C125.795 61.6485 124.45 62.9117 123.85 64.6231C123.247 66.3437 123.376 68.235 123.501 70.0644C123.542 70.6733 123.585 71.3031 123.599 71.9071V71.9378L123.58 71.9619C123.229 72.4363 122.843 72.8839 122.425 73.3008L122.424 73.3004ZM35.8027 73.7654L36.0724 73.8099C35.0176 73.2908 34.1467 72.462 33.5764 71.4345C32.13 68.5232 33.7547 65.4885 35.1047 63.4614C37.0213 60.5804 38.7899 58.09 40.5032 55.8477C44.1045 51.168 47.969 46.6964 52.0779 42.4547C52.5035 42.0138 52.9301 41.5817 53.3473 41.1581C54.1085 40.3866 54.8275 39.6575 55.4648 38.9586C55.6229 38.784 55.7764 38.6132 55.9253 38.4464C56.3527 37.9698 56.7512 37.5252 57.1541 37.1257C57.0168 36.5056 56.8777 35.8526 56.7396 35.1712C56.0304 35.5943 55.3546 36.0708 54.7178 36.5965L54.4014 36.8428C52.9069 37.9934 51.6161 39.0833 50.4541 40.1759C46.6843 43.7202 42.8383 48.4207 38.6954 54.5458C37.3582 56.5261 36.0982 58.5025 34.8814 60.4138C34.3639 61.2267 33.8563 62.0209 33.3638 62.7879C31.2244 66.1112 30.817 68.798 32.1113 71.002C32.9448 72.4211 34.4812 73.2278 35.8027 73.7654ZM113.715 73.1903C114.049 73.2429 114.382 73.3042 114.716 73.3743C115.18 73.4719 115.646 73.5841 116.108 73.7012C116.29 73.3642 116.453 73.0176 116.598 72.663C116.242 72.5485 115.888 72.4402 115.535 72.3378C114.953 72.1712 114.372 72.029 113.792 71.9111C113.816 72.339 113.79 72.7683 113.715 73.1903ZM35.037 73.6358C35.0451 73.6367 35.0531 73.638 35.061 73.6398C33.7921 73.1234 32.7099 72.2341 31.9575 71.0897C30.6253 68.8216 31.0363 66.0738 33.2131 62.6881C33.7074 61.9216 34.2133 61.1291 34.7308 60.3149C35.948 58.4027 37.2067 56.4255 38.5474 54.4424C42.6992 48.3085 46.5519 43.5986 50.3316 40.0436C51.4976 38.9466 52.7932 37.8526 54.2917 36.6994L54.6073 36.4535C55.2651 35.9101 55.9657 35.4205 56.7021 34.9894C56.5854 34.4104 56.4695 33.8131 56.3558 33.2001C55.2535 33.5403 54.1957 34.0104 53.2046 34.6006C51.6012 35.5032 50.0929 36.5653 48.7029 37.7706C43.7462 42.0418 39.7098 48.2239 36.7472 53.1324C35.9449 54.4643 35.1644 55.7992 34.4116 57.09C33.3923 58.8365 32.43 60.4864 31.4757 62.0129C29.2833 65.5299 28.9584 68.3539 30.4867 70.6443C31.527 72.2086 33.2893 73.0402 35.037 73.6335V73.6358ZM116.832 72.5543C117.388 72.736 117.941 72.928 118.484 73.116C118.721 73.1975 118.958 73.2803 119.197 73.3618C119.419 73.0738 119.626 72.7743 119.816 72.4648L119.683 72.4095C118.785 72.0412 117.862 71.6625 116.945 71.3271C116.984 71.5147 117.022 71.7013 117.057 71.8861L117.061 71.9084L117.054 71.9298C116.986 72.1397 116.911 72.3472 116.832 72.5521V72.5543ZM56.0166 31.2817C54.6373 31.45 53.2887 31.8125 52.011 32.3583C50.1913 33.1194 48.4875 34.1321 46.9495 35.3667C41.8586 39.4321 38.099 45.6306 34.795 51.7231C34.24 52.7476 33.6949 53.7721 33.1685 54.7663C31.933 57.0949 30.7666 59.294 29.585 61.2405C27.34 64.9451 27.1033 67.9058 28.8621 70.2924C30.0093 71.8514 31.8038 72.7195 33.7346 73.3293C32.3737 72.8189 31.1927 71.9207 30.3378 70.7459C28.7671 68.3887 29.0898 65.5023 31.3229 61.9202C32.2753 60.396 33.2394 58.7475 34.2556 57.0023C35.0089 55.7106 35.788 54.3743 36.5925 53.042C39.5623 48.1223 43.6089 41.9251 48.5848 37.6375C49.9848 36.4244 51.5034 35.3554 53.1177 34.4464C54.1258 33.8467 55.2021 33.3698 56.3237 33.026C56.219 32.4563 56.1151 31.8728 56.0166 31.2817ZM120.075 72.3761C120.788 72.6692 121.513 72.9627 122.239 73.2327C122.665 72.8133 123.059 72.3619 123.417 71.8826C123.402 71.292 123.361 70.6755 123.32 70.0786C123.194 68.2319 123.064 66.3219 123.679 64.566C124.294 62.8102 125.654 61.5372 126.969 60.2998C127.481 59.82 128.008 59.3243 128.477 58.8129C129.487 57.7751 130.241 56.517 130.681 55.1379C131.12 53.7587 131.233 52.2963 131.01 50.8661C130.503 50.3619 130.02 49.8416 129.578 49.3071C129.226 48.881 128.903 48.4552 128.61 48.0297C129.075 51.2893 127.964 54.5235 125.41 57.0682C124.888 57.5898 124.309 58.0927 123.747 58.5804C122.166 59.9546 120.53 61.3755 119.907 63.4119C119.296 65.4119 119.663 67.6577 120.018 69.8296C120.13 70.5116 120.245 71.2162 120.326 71.8946L120.329 71.9227L120.315 71.9467C120.239 72.0933 120.159 72.2363 120.075 72.3761ZM107.157 71.5922C107.186 71.6813 107.216 71.7693 107.246 71.8563C107.391 72.3059 107.527 72.7552 107.652 73.2042C108.589 73.0496 109.536 72.9666 110.486 72.9561C110.458 72.6039 110.41 72.2537 110.343 71.9071C110.315 71.7645 110.285 71.6229 110.254 71.4804C109.22 71.4388 108.186 71.4761 107.158 71.5922H107.157ZM110.706 72.9547C111.655 72.955 112.602 73.025 113.541 73.1641C113.613 72.7473 113.636 72.3234 113.609 71.9013V71.875C112.563 71.6696 111.503 71.5402 110.438 71.4879C110.466 71.6162 110.492 71.7445 110.517 71.8723C110.587 72.23 110.636 72.5914 110.664 72.9547H110.706ZM55.6436 29.398C54.0084 29.398 52.3823 29.6395 50.8178 30.1147C48.7944 30.7348 46.8932 31.6992 45.1979 32.9654C39.6523 37.0704 35.9137 44.0734 32.8441 50.3156C32.4603 51.1018 32.0832 51.8839 31.7106 52.6558C30.3396 55.5003 29.0444 58.1862 27.6957 60.4708C25.4011 64.3603 25.2514 67.4582 27.2375 69.9414C28.5256 71.549 30.3976 72.4465 32.4175 73.0496C30.9604 72.5289 29.6787 71.61 28.7181 70.3975C26.9121 67.9477 27.1461 64.9215 29.4313 61.1483C30.6102 59.2063 31.7757 57.009 33.0094 54.683C33.5367 53.6892 34.0814 52.6621 34.6367 51.638C37.9501 45.529 41.7213 39.3132 46.8372 35.2277C48.388 33.9822 50.1062 32.9607 51.9415 32.193C53.2317 31.6421 54.5933 31.2756 55.9859 31.1044C55.8923 30.5417 55.8022 29.9725 55.7158 29.3967L55.6436 29.398ZM53.5746 27.4613C48.2211 27.4613 43.6847 29.545 39.799 33.7649C35.4894 38.4455 32.549 45.1286 29.9545 51.026C28.7206 53.9848 27.3362 56.8787 25.8067 59.6962C24.3127 62.2948 22.6671 66.1477 25.6142 69.5882C26.9959 71.2029 28.9445 72.1369 30.977 72.7436C29.4694 72.2037 28.1316 71.2749 27.0993 70.0514C25.0611 67.5036 25.2064 64.3393 27.5428 60.3791C28.8879 58.1007 30.1814 55.4179 31.5511 52.577C31.9232 51.8051 32.3007 51.0225 32.685 50.2358C35.7635 43.975 39.515 36.9493 45.0927 32.8198C46.8043 31.542 48.7238 30.5692 50.7666 29.9441C52.3475 29.4637 53.9908 29.2197 55.6431 29.2198H55.6904C55.6084 28.6651 55.5305 28.1067 55.4568 27.5446C54.8194 27.4897 54.192 27.4619 53.5746 27.4613ZM113.776 71.7267C114.376 71.8478 114.978 71.9945 115.582 72.1668C115.941 72.2692 116.302 72.3806 116.662 72.4968C116.738 72.2996 116.81 72.0989 116.877 71.8946C116.836 71.683 116.793 71.4688 116.747 71.2536C116.626 71.2091 116.506 71.1681 116.386 71.1271C115.466 70.8092 114.528 70.5433 113.578 70.3307C113.669 70.7922 113.735 71.2582 113.776 71.7267ZM116.9 71.1196C117.855 71.4648 118.817 71.8594 119.749 72.2425L119.909 72.308C119.991 72.1708 120.07 72.0309 120.147 71.8884C120.066 71.2202 119.953 70.5294 119.843 69.859C119.487 67.6671 119.115 65.4003 119.738 63.3603C120.376 61.2748 122.031 59.837 123.632 58.4464C124.19 57.9613 124.768 57.4597 125.286 56.9426C127.897 54.3409 128.974 51.0082 128.373 47.6751C128.256 47.4969 128.144 47.3188 128.037 47.1406C127.951 47.0414 127.866 46.9415 127.782 46.8408C127.227 46.1752 126.727 45.4665 126.285 44.7215C126.183 44.6061 126.083 44.489 125.985 44.3709C125.947 44.3252 125.909 44.2793 125.871 44.2333C126.755 48.2047 125.466 52.1783 122.214 55.2054C121.639 55.74 121.005 56.2589 120.391 56.7591C118.531 58.2771 116.607 59.8468 115.968 62.2031C115.353 64.4747 115.96 67.0653 116.548 69.5722C116.667 70.0799 116.789 70.602 116.9 71.1196ZM110.397 71.3084C111.47 71.3579 112.539 71.4857 113.594 71.6906C113.551 71.2202 113.483 70.7525 113.39 70.2893C112.274 70.0481 111.142 69.8856 110.003 69.8029C110.148 70.3044 110.282 70.8073 110.397 71.3084ZM106.538 69.8203C106.732 70.3548 106.922 70.8893 107.101 71.4198C108.133 71.3008 109.173 71.2609 110.212 71.3004C110.096 70.7984 109.96 70.2938 109.813 69.79C108.722 69.719 107.628 69.7291 106.538 69.8203ZM113.542 70.1405C114.525 70.3568 115.494 70.6298 116.444 70.9583C116.53 70.9882 116.616 71.018 116.703 71.0474C116.598 70.5668 116.485 70.0831 116.374 69.6087C115.781 67.0809 115.171 64.4663 115.795 62.1523C116.448 59.7416 118.394 58.1537 120.277 56.6174C120.888 56.119 121.519 55.6032 122.091 55.0714C125.395 51.9979 126.641 47.9294 125.606 43.8988C125.2 43.3758 124.829 42.8269 124.494 42.2556C124.389 42.1376 124.287 42.0182 124.186 41.8993C123.772 41.4064 123.389 40.8882 123.04 40.3479C124.665 45.8324 122.139 50.5837 119.015 53.3369C118.385 53.8923 117.694 54.4286 117.025 54.9471C114.886 56.605 112.677 58.319 112.027 60.9888C111.55 62.9434 112.158 65.056 112.802 67.2929C113.073 68.2283 113.348 69.1833 113.542 70.1405ZM109.949 69.6212C111.093 69.7005 112.23 69.8602 113.352 70.0991C113.16 69.174 112.893 68.2488 112.633 67.3424C111.982 65.0818 111.367 62.9469 111.855 60.947C112.521 58.2161 114.756 56.4829 116.918 54.8063C117.584 54.2897 118.273 53.7551 118.899 53.2028C122.105 50.3779 124.672 45.4199 122.655 39.7354C122.566 39.6339 122.477 39.5323 122.391 39.4294C121.822 38.7589 121.314 38.0398 120.872 37.2802C120.778 37.1747 120.685 37.0678 120.593 36.9609C120.433 36.772 120.279 36.5829 120.133 36.3934C122.502 42.8075 119.521 48.3521 115.82 51.471C115.133 52.0501 114.383 52.6064 113.657 53.1458C111.242 54.94 108.746 56.7947 108.086 59.7777C107.551 62.1728 108.406 64.8057 109.309 67.5931C109.528 68.2613 109.748 68.9397 109.949 69.6198V69.6212ZM116.955 31.9708C117.025 32.1193 117.092 32.2677 117.157 32.4162C120.355 39.7791 116.911 46.1215 112.622 49.602C111.879 50.2047 111.07 50.7855 110.287 51.3467C107.597 53.2759 104.816 55.2709 104.146 58.5653C103.522 61.6311 104.853 65.2418 106.14 68.733C106.251 69.035 106.362 69.3401 106.475 69.6457C107.567 69.5516 108.665 69.5386 109.759 69.6069C109.563 68.9486 109.351 68.2925 109.141 67.647C108.23 64.8355 107.369 62.1804 107.913 59.7381C108.585 56.6896 111.109 54.8148 113.55 53.0015C114.273 52.4639 115.02 51.908 115.704 51.3329C119.476 48.1553 122.49 42.4289 119.722 35.8397C119.461 35.4709 119.223 35.1017 119.007 34.7315C118.936 34.6507 118.866 34.5703 118.796 34.4901C118.152 33.7412 117.572 32.9393 117.062 32.0928L116.999 32.0211L116.955 31.9708ZM135.827 54.8723C136.272 55.258 136.715 55.6482 137.145 56.0455C136.627 55.3345 136.055 54.6643 135.434 54.0411C135.541 54.2404 135.64 54.4426 135.731 54.6478C135.765 54.7238 135.797 54.7986 135.828 54.8723H135.827ZM133.604 52.9823C133.931 53.2612 134.256 53.5375 134.58 53.8113C134.891 54.0741 135.203 54.3385 135.516 54.6046C135.352 54.2496 135.167 53.9049 134.961 53.5721C134.439 53.0661 133.888 52.5681 133.32 52.0688C133.432 52.3726 133.526 52.6771 133.605 52.9823H133.604ZM133.178 51.7093C133.634 52.1071 134.087 52.5111 134.527 52.9195C134.002 52.1959 133.421 51.5146 132.789 50.8817C132.893 51.0762 132.989 51.2737 133.078 51.4741C133.113 51.5522 133.147 51.6306 133.179 51.7093H133.178ZM131.164 50.7672C131.862 51.4585 132.607 52.1245 133.362 52.7752C133.268 52.4496 133.157 52.1292 133.029 51.8153C132.766 51.5855 132.499 51.3546 132.231 51.1227C131.83 50.7761 131.426 50.4265 131.025 50.0719C131.08 50.3036 131.127 50.5353 131.165 50.7672H131.164ZM130.946 49.7641C131.411 50.1779 131.882 50.5851 132.347 50.9882C132.52 51.1366 132.693 51.2863 132.865 51.4372C132.703 51.0839 132.519 50.7408 132.315 50.41C131.788 49.8973 131.232 49.3922 130.663 48.8831C130.772 49.1749 130.867 49.4697 130.947 49.7641H130.946ZM128.757 47.9272C129.048 48.3495 129.368 48.7719 129.716 49.1944C130.102 49.6617 130.518 50.1156 130.955 50.5588C130.911 50.3284 130.857 50.0981 130.795 49.8679C130.09 49.2403 129.4 48.5958 128.758 47.9277L128.757 47.9272ZM130.518 48.5161C130.974 48.921 131.429 49.3303 131.874 49.7468C131.349 49.0259 130.769 48.3462 130.141 47.7134C130.242 47.9058 130.337 48.1 130.424 48.2978C130.46 48.3704 130.489 48.4435 130.519 48.5161H130.518ZM128.499 47.3932C129.179 48.1392 129.929 48.8533 130.7 49.5463C130.605 49.2384 130.494 48.9308 130.368 48.6234L129.989 48.2867C129.449 47.8083 128.902 47.3232 128.366 46.8275C128.418 47.0141 128.462 47.2034 128.499 47.3932ZM128.276 46.4983C128.878 47.0622 129.497 47.6119 130.108 48.1539C130.139 48.1807 130.17 48.2083 130.2 48.2354C130.041 47.8924 129.862 47.559 129.663 47.2373C129.13 46.7143 128.569 46.1972 127.997 45.6738C128.102 45.9464 128.195 46.2206 128.276 46.4965V46.4983ZM128.187 47.0395C128.211 47.0671 128.235 47.0952 128.259 47.1223C128.217 46.9468 128.17 46.7704 128.12 46.595C127.99 46.4716 127.86 46.3482 127.731 46.2239C127.87 46.4934 128.022 46.766 128.187 47.0368V47.0395ZM127.846 45.2925L127.862 45.3068C128.312 45.7184 128.766 46.1322 129.211 46.554C128.684 45.8346 128.106 45.1547 127.48 44.5197C127.585 44.7188 127.684 44.9206 127.773 45.1242C127.796 45.1781 127.821 45.2346 127.844 45.2907L127.846 45.2925ZM126.954 45.4475C127.14 45.7187 127.337 45.9898 127.547 46.2609C127.474 46.1198 127.404 45.9785 127.337 45.8368C127.207 45.7071 127.079 45.5767 126.953 45.4458L126.954 45.4475ZM127.489 45.7366C127.661 45.9081 127.836 46.0787 128.013 46.2475C127.92 45.9636 127.815 45.6803 127.697 45.3976C127.501 45.2195 127.304 45.0392 127.107 44.8569C127.221 45.1488 127.348 45.4415 127.487 45.7348L127.489 45.7366ZM126.41 44.591C126.638 44.852 126.876 45.1095 127.123 45.3629C127.01 45.1025 126.906 44.8416 126.811 44.5803C126.527 44.3171 126.245 44.0511 125.968 43.7817C126.101 44.0513 126.248 44.3205 126.408 44.5892L126.41 44.591ZM126.965 44.4832C127.149 44.6539 127.333 44.8235 127.517 44.9919C127.36 44.6603 127.185 44.3377 126.991 44.0257C126.902 43.9384 126.813 43.8508 126.724 43.7629C126.796 44.0017 126.876 44.2409 126.963 44.4814L126.965 44.4832ZM125.731 43.3033C126.043 43.6124 126.359 43.9171 126.68 44.2177C126.6 43.9802 126.527 43.7426 126.461 43.505C126.138 43.1932 125.808 42.8815 125.475 42.5665C125.445 42.5371 125.413 42.5077 125.382 42.4774C125.487 42.7527 125.603 43.0274 125.73 43.3015L125.731 43.3033ZM125.776 43.8222L125.841 43.905C125.81 43.844 125.779 43.7825 125.749 43.7211C125.754 43.7536 125.763 43.7852 125.772 43.8204L125.776 43.8222ZM125.162 42.9759C125.264 43.1267 125.37 43.2779 125.48 43.4293C125.461 43.367 125.442 43.3055 125.422 43.2431C125.332 43.1532 125.244 43.0635 125.158 42.9741L125.162 42.9759ZM125.245 42.1024C125.364 42.2152 125.483 42.3273 125.602 42.4387C125.86 42.6828 126.119 42.9287 126.376 43.1745C126.369 43.1469 126.362 43.1198 126.355 43.0921C125.954 42.5646 125.525 42.0581 125.072 41.5746C125.121 41.7492 125.179 41.9242 125.241 42.1006L125.245 42.1024ZM124.648 42.1576C124.856 42.3919 125.07 42.6232 125.29 42.8516C125.203 42.6063 125.106 42.3613 125.001 42.1167C124.74 41.8681 124.48 41.6173 124.22 41.3643C124.349 41.6283 124.491 41.8922 124.644 42.1558L124.648 42.1576ZM124.96 41.1995C125.416 41.6819 125.855 42.1755 126.258 42.6837C125.34 38.4664 126.368 34.2179 127.436 29.8109C128.841 24.0039 130.295 17.9992 126.994 11.8496C125.214 8.53255 122.053 5.50634 118.094 3.32777C114.344 1.26189 110.117 0.110465 106.499 0.180842C104.389 0.219197 102.3 0.607855 100.317 1.33093C100.906 1.31985 101.496 1.33829 102.083 1.38616C103.702 1.5661 105.3 1.90568 106.852 2.39995L107.715 2.64716C109.529 3.16608 111.405 3.70281 113.162 4.3901C116.687 5.76691 121.459 8.29558 124.167 12.5227C127.713 18.0539 126.588 23.6583 125.5 29.0769C124.666 33.2349 123.86 37.2375 124.957 41.1977L124.96 41.1995ZM58.4391 41.5839C58.5585 41.9879 58.6673 42.3242 58.7609 42.583C58.6772 42.1043 58.6191 41.6216 58.5866 41.1367C58.5804 41.0165 58.5679 40.8632 58.5509 40.6811C58.5148 40.979 58.4796 41.2779 58.4359 41.5821L58.4391 41.5839ZM123.991 40.89C124.256 41.1554 124.525 41.4176 124.797 41.6766C124.639 41.3586 124.466 41.0489 124.276 40.7488C124.082 40.5519 123.885 40.3547 123.685 40.1572C123.779 40.4019 123.881 40.6462 123.991 40.89ZM123.348 40.4891C123.569 40.8196 123.81 41.1486 124.071 41.4761C123.99 41.3149 123.913 41.1532 123.839 40.9911C123.673 40.8239 123.509 40.6566 123.348 40.4891ZM124.794 41.2846L124.847 41.3835C124.841 41.3625 124.835 41.3421 124.829 41.3216L124.794 41.2846ZM57.8284 39.3203C57.9996 40.0116 58.1632 40.6289 58.3125 41.1563C58.3419 40.9194 58.3678 40.6846 58.3936 40.4508C58.4168 40.2396 58.4382 40.0352 58.464 39.8347C58.4217 39.4165 58.3718 38.9145 58.3214 38.3426C58.1534 38.6508 57.9929 38.9795 57.8284 39.3203ZM124.418 40.6405C124.523 40.7479 124.629 40.8565 124.733 40.9648C123.728 36.9827 124.535 32.9676 125.323 29.0417C126.404 23.6574 127.523 18.0896 124.016 12.6184C121.333 8.43144 116.596 5.9237 113.096 4.55625C111.347 3.87163 109.475 3.33623 107.665 2.81909L106.802 2.57143C105.261 2.08065 103.675 1.74316 102.068 1.56388C101.315 1.5033 100.56 1.49095 99.8056 1.52691C98.9635 1.86351 98.1478 2.26254 97.3653 2.72065C97.466 2.73669 97.5672 2.75361 97.6688 2.77143C98.9084 3.02852 100.123 3.3946 101.298 3.86539C101.677 4.00347 102.064 4.14512 102.461 4.2832C103.807 4.75223 105.198 5.101 106.543 5.43863C107.429 5.66134 108.265 5.87114 109.093 6.113C114.853 7.78646 118.81 10.133 121.185 13.2843C124.84 18.1314 124.079 23.2805 123.344 28.2599C122.812 31.8541 122.269 35.5315 123.348 39.1657C123.734 39.6353 124.092 40.1278 124.419 40.6405H124.418ZM122.84 39.678C123.098 39.9681 123.366 40.2542 123.643 40.5363C123.55 40.3109 123.464 40.0851 123.385 39.8588C123.315 39.7905 123.245 39.7219 123.176 39.653C122.984 39.4642 122.79 39.2735 122.596 39.0811C122.666 39.2524 122.732 39.4232 122.793 39.5933C122.81 39.6214 122.826 39.6499 122.842 39.678H122.84ZM123.541 39.767C123.606 39.8309 123.67 39.8949 123.735 39.959C123.658 39.8543 123.579 39.7497 123.499 39.6472L123.541 39.767ZM122.405 38.6419C122.689 38.927 122.975 39.2089 123.257 39.4882C123.232 39.4089 123.207 39.3287 123.183 39.249C122.831 38.8178 122.456 38.3956 122.072 37.9804C122.192 38.1951 122.303 38.4161 122.407 38.6397L122.405 38.6419ZM58.4774 38.0677C58.5162 38.531 58.5558 38.9528 58.5928 39.3265C58.8301 38.7776 58.966 38.1902 58.994 37.5929C58.8755 37.7066 58.7402 37.8014 58.5928 37.874C58.5545 37.9377 58.5153 38.0018 58.4774 38.0677ZM57.3315 37.2005C57.4777 37.858 57.6225 38.4771 57.762 39.0495C57.9368 38.6904 58.1092 38.347 58.2947 38.025C58.2545 37.5426 58.2153 37.0161 58.1806 36.4531C57.882 36.6843 57.5983 36.9339 57.331 37.2005H57.3315ZM121.53 37.9947C121.76 38.3362 122.011 38.6777 122.283 39.0192C122.203 38.8588 122.127 38.6985 122.054 38.5381C121.878 38.3582 121.703 38.1778 121.53 37.9947ZM121.801 37.4254C122.235 37.8833 122.662 38.3475 123.065 38.8232C122.125 35.287 122.652 31.7213 123.168 28.2332C123.932 23.0618 124.654 18.1778 121.044 13.3903C118.691 10.2724 114.766 7.94548 109.044 6.28271C108.219 6.04129 107.384 5.83194 106.501 5.61057C105.152 5.2716 103.757 4.92194 102.403 4.44979C102.005 4.31171 101.618 4.17006 101.237 4.03109C100.072 3.5645 98.8676 3.20126 97.6385 2.94559C97.4656 2.9159 97.2944 2.88843 97.1251 2.86319C96.2583 3.38851 95.4356 3.98332 94.6652 4.64177C95.1925 4.85735 95.7144 5.10189 96.2524 5.35445C96.8318 5.62705 97.4348 5.90855 98.0709 6.16556C99.8235 6.81134 101.638 7.27407 103.486 7.54638C104.021 7.64304 104.524 7.73479 105.028 7.83635C109.388 8.70716 114.827 10.1998 118.205 14.0469C121.873 18.2254 121.52 22.6984 121.146 27.4337C120.886 30.7267 120.62 34.0981 121.801 37.4268V37.4254ZM121.02 37.1773C121.29 37.4811 121.571 37.7818 121.858 38.0789C121.807 37.9533 121.757 37.8277 121.71 37.7021C121.645 37.5934 121.579 37.486 121.511 37.3791C121.282 37.1392 121.052 36.9006 120.822 36.6633L120.641 36.4771C120.759 36.7114 120.885 36.9453 121.02 37.1787V37.1773ZM58.3526 36.3266C58.3834 36.8366 58.4177 37.3176 58.4538 37.764L58.4591 37.756L58.4729 37.7341L58.4966 37.7225C58.7044 37.6209 58.8871 37.4743 59.0314 37.2936C59.0448 37.1809 59.0582 37.0638 59.072 36.9439C59.1036 36.6642 59.1379 36.3649 59.1776 36.0455C58.9561 36.1216 58.7292 36.1812 58.4988 36.2237C58.4475 36.2575 58.399 36.2927 58.3508 36.3279L58.3526 36.3266ZM59.3657 35.9756C59.3211 36.3279 59.2832 36.6584 59.2485 36.964L59.2436 37.005C59.4924 36.5976 59.7082 36.171 59.889 35.7293C59.7191 35.8222 59.5437 35.9049 59.3639 35.9769L59.3657 35.9756ZM56.8867 35.0905C57.0204 35.7524 57.1541 36.3889 57.2878 36.9943C57.5648 36.7229 57.8593 36.47 58.1694 36.237C58.14 35.727 58.1146 35.1885 58.0963 34.626C57.6745 34.7296 57.2674 34.8862 56.8849 35.0919L56.8867 35.0905ZM120.064 35.1622C120.564 35.7422 121.032 36.3495 121.465 36.9814C120.467 33.7881 120.722 30.5672 120.97 27.4181C121.341 22.7211 121.691 18.2869 118.073 14.1627C114.73 10.3561 109.329 8.87463 104.996 8.00918C104.493 7.90806 103.99 7.81675 103.457 7.7201C101.597 7.44621 99.7706 6.98033 98.0067 6.32993C97.3662 6.07113 96.7627 5.78829 96.1793 5.51524C95.615 5.25066 95.0686 4.99499 94.5163 4.77228C93.6526 5.52649 92.8538 6.35179 92.1282 7.23948C92.6229 7.52055 93.136 7.79849 93.682 8.04748C95.746 8.99045 97.8895 9.22207 99.9616 9.44656C100.301 9.48308 100.635 9.51916 100.964 9.55836C106.218 10.169 111.581 11.2278 115.227 14.8077C118.833 18.351 118.877 22.3719 118.923 26.6279C118.95 29.4425 118.981 32.3151 120.062 35.1636L120.064 35.1622ZM119.881 35.752C120.064 36.0097 120.259 36.2669 120.466 36.5235C120.389 36.3707 120.316 36.2179 120.246 36.0656C120.106 35.9192 119.966 35.7717 119.827 35.6233L119.881 35.752ZM120.399 35.9667C120.559 36.1339 120.719 36.2999 120.879 36.4647C120.688 36.2072 120.488 35.9529 120.282 35.7012C120.319 35.7906 120.357 35.8795 120.397 35.968L120.399 35.9667ZM58.2715 34.5912C58.2884 35.123 58.3116 35.6331 58.3392 36.1181C58.3633 36.1012 58.3878 36.0847 58.4128 36.0682L58.4462 36.0544C58.7031 36.0079 58.9555 35.9389 59.2003 35.8482C59.2592 35.3894 59.3296 34.8954 59.4196 34.3716C59.0929 34.4456 58.756 34.5106 58.4061 34.5672C58.3606 34.5747 58.3161 34.5827 58.2715 34.5912ZM59.6086 34.3275C59.5195 34.8389 59.4486 35.3226 59.3898 35.7729C59.6027 35.6824 59.8085 35.5762 60.0057 35.4553C60.0445 35.3662 60.0837 35.2723 60.1239 35.1783C60.2732 34.8268 60.4359 34.4487 60.6141 34.046C60.2879 34.1516 59.9536 34.2451 59.6086 34.3275ZM119.584 35.103C119.735 35.2669 119.887 35.4302 120.041 35.593C119.995 35.4798 119.95 35.3662 119.908 35.2536C119.707 35.0175 119.502 34.7841 119.295 34.552C119.394 34.734 119.491 34.9177 119.584 35.103ZM60.8486 33.9694C60.6396 34.4268 60.4577 34.8545 60.2901 35.2482L60.2772 35.2781C60.9384 34.7922 61.513 34.1985 61.9767 33.5217C61.6023 33.6901 61.2283 33.8384 60.8464 33.9694H60.8486ZM56.5149 33.1592C56.6249 33.759 56.7369 34.3437 56.851 34.9133C57.2432 34.707 57.6598 34.5508 58.091 34.4482C58.0874 34.3244 58.0838 34.1983 58.0812 34.0723C58.0723 33.6999 58.0663 33.3139 58.0633 32.9142C57.5395 32.9433 57.02 33.0254 56.5127 33.1592H56.5149ZM118.817 33.7587C119.125 34.0968 119.434 34.4375 119.736 34.7832C118.8 32.0567 118.772 29.3147 118.743 26.6319C118.699 22.4129 118.654 18.4281 115.1 14.9364C111.494 11.3944 106.165 10.3445 100.943 9.73653C100.614 9.69778 100.28 9.6617 99.942 9.62517C97.8556 9.39979 95.6979 9.16594 93.6075 8.2114C93.0455 7.95483 92.52 7.66976 92.0137 7.38113C91.434 8.101 90.8971 8.85417 90.4055 9.63676C90.2748 9.84462 90.1469 10.054 90.0218 10.2648C92.0966 11.1062 94.2895 11.1873 96.2493 11.2594C96.4677 11.2679 96.6838 11.2755 96.8978 11.2844C102.349 11.5004 108.025 12.0095 112.242 15.5729C115.742 18.5288 116.209 22.1069 116.699 25.8952C117.009 28.2755 117.323 30.7098 118.393 33.1333C118.538 33.3397 118.679 33.5482 118.814 33.7587H118.817ZM58.2394 32.908C58.243 33.3076 58.2488 33.6937 58.2568 34.0661C58.2599 34.1814 58.2626 34.2959 58.2657 34.4095C58.3027 34.4023 58.3401 34.3961 58.3771 34.3899C58.7493 34.3293 59.1067 34.2598 59.4535 34.1792C59.4878 33.9877 59.5248 33.7917 59.5649 33.5926C59.6119 33.3601 59.6608 33.1195 59.7116 32.871C59.2382 32.8875 58.7756 32.8959 58.3236 32.9044L58.2394 32.908ZM59.8948 32.8661C59.8413 33.1292 59.7896 33.3835 59.7397 33.6291C59.7049 33.801 59.6725 33.9701 59.6425 34.1364C60.0106 34.0473 60.3672 33.9427 60.7167 33.8246C60.8227 33.5952 60.9355 33.3578 61.0572 33.112C61.1111 33.0033 61.1642 32.895 61.2172 32.7864C60.7693 32.8251 60.328 32.8492 59.8948 32.8661ZM117.822 32.9391C118.057 33.2788 118.311 33.6184 118.585 33.9578C118.517 33.8242 118.451 33.6906 118.389 33.5592L118.314 33.4772C118.152 33.2999 117.987 33.12 117.822 32.9391ZM61.424 32.7699C61.3557 32.9106 61.2866 33.0515 61.2167 33.1926C61.1234 33.38 61.0343 33.5636 60.9493 33.7436C61.3661 33.594 61.7747 33.4229 62.1737 33.2309C62.298 33.046 62.4206 32.8523 62.5432 32.6487L62.5508 32.6358C62.1728 32.6941 61.7962 32.7356 61.424 32.7699ZM62.6885 32.7552C62.623 32.8643 62.5548 32.9712 62.4901 33.0754C62.8592 32.887 63.2296 32.6777 63.608 32.4452C63.3762 32.495 63.1453 32.5396 62.9154 32.5788C62.8405 32.6389 62.7651 32.6977 62.6885 32.7552ZM56.1811 31.2643C56.278 31.8472 56.3777 32.4202 56.4802 32.9832C56.9969 32.8481 57.526 32.7656 58.0593 32.7369C58.0562 32.2514 58.0562 31.7481 58.0593 31.2305C57.4335 31.1923 56.8056 31.2036 56.1815 31.2643H56.1811ZM117.209 31.9899C117.438 32.2505 117.673 32.5111 117.907 32.7685C117.61 32.3708 117.298 31.9788 116.977 31.5913C117.051 31.7246 117.129 31.8575 117.209 31.9899ZM58.2372 31.243C58.2372 31.7534 58.2372 32.2501 58.2372 32.7298H58.3192C58.7832 32.7213 59.2601 32.7124 59.7455 32.695L59.7775 32.5374C59.853 32.17 59.9304 31.7904 60.0098 31.3984C59.4303 31.345 58.8331 31.2897 58.2416 31.2452L58.2372 31.243ZM60.1916 31.4131C60.1111 31.8113 60.0323 32.1973 59.9554 32.5712C59.9474 32.61 59.9398 32.6483 59.9318 32.6866C60.3824 32.6683 60.8415 32.642 61.3077 32.6011C61.4764 32.2509 61.6399 31.9014 61.798 31.5525C61.2671 31.512 60.7327 31.4634 60.1916 31.4131ZM61.9856 31.5663C61.8341 31.9043 61.677 32.2428 61.5145 32.5819C61.9513 32.54 62.393 32.4844 62.8391 32.41C63.1213 32.1751 63.3868 31.9211 63.6338 31.6496C63.0883 31.6367 62.5396 31.6069 61.9856 31.5663ZM116.578 30.8439C117.052 31.394 117.514 31.953 117.947 32.5244C117.092 30.308 116.804 28.0907 116.521 25.9179C116.03 22.1648 115.571 18.6201 112.125 15.7083C107.95 12.1819 102.309 11.6768 96.888 11.4621C96.674 11.4532 96.458 11.4449 96.2399 11.4372C94.2574 11.3641 92.0373 11.2817 89.9277 10.4198C89.4477 11.2385 89.0024 12.0857 88.579 12.9431C89.865 13.066 91.1584 13.0919 92.4482 13.0206L92.8298 13.0091C98.5451 12.8309 104.521 12.9405 109.257 16.335C112.652 18.7688 113.581 21.9412 114.561 25.2997C115.058 27.2067 115.733 29.063 116.578 30.8439ZM63.8705 31.6532C63.6552 31.898 63.4261 32.1303 63.1841 32.3489C63.4762 32.2937 63.7696 32.2296 64.0644 32.1565C64.3113 31.9959 64.5544 31.8254 64.7936 31.6452C64.4857 31.6556 64.1781 31.6582 63.8705 31.6532ZM65.1029 31.6331C64.9335 31.7668 64.7624 31.8924 64.5894 32.0149C64.9118 31.9213 65.2353 31.814 65.5598 31.6928C65.6583 31.6563 65.7563 31.618 65.8539 31.5788C65.6031 31.6026 65.3524 31.6207 65.1016 31.6331H65.1029ZM64.0229 31.4764C64.3644 31.4795 64.7009 31.4728 65.0378 31.4572C65.283 31.2648 65.5235 31.0629 65.7594 30.8514C65.3784 30.8113 64.9959 30.7623 64.6135 30.7067C64.4236 30.9757 64.2263 31.2323 64.0216 31.4764H64.0229ZM62.0618 31.3931C62.6412 31.4345 63.218 31.4648 63.789 31.4741C64.0065 31.2238 64.2146 30.9574 64.4129 30.6777C63.7765 30.5819 63.1395 30.4697 62.5062 30.3526C62.365 30.6982 62.2172 31.045 62.0627 31.3931H62.0618ZM65.9957 30.8755C65.7817 31.0715 65.5638 31.2599 65.3418 31.4407C65.6984 31.4176 66.0585 31.3828 66.4164 31.3338C66.6696 31.215 66.9195 31.0888 67.1661 30.9552C66.7792 30.9405 66.3883 30.9125 65.9966 30.8755H65.9957ZM60.2259 31.2376C60.7813 31.2888 61.33 31.3387 61.8751 31.3797C62.0328 31.0251 62.1845 30.6715 62.3301 30.3187C62.0386 30.2644 61.748 30.2087 61.4592 30.1534C61.1352 30.092 60.8076 30.0296 60.4786 29.9681C60.3943 30.4023 60.3103 30.8254 60.2268 31.2376H60.2259ZM67.512 30.965C67.3475 31.0594 67.1817 31.1512 67.0137 31.2385L67.0582 31.2305C67.4416 31.1586 67.8197 31.0695 68.1926 30.9632C67.9666 30.9686 67.7402 30.9686 67.5129 30.965H67.512ZM58.2367 31.0639H58.2572C58.8567 31.1084 59.4606 31.1654 60.0476 31.2193C60.1314 30.8029 60.2166 30.373 60.3017 29.9339C59.6193 29.8078 58.9307 29.688 58.2514 29.59C58.2455 30.0927 58.2409 30.584 58.2376 31.0639H58.2367ZM55.8887 29.398C55.9731 29.9667 56.0611 30.5295 56.1526 31.0866C56.7863 31.024 57.4241 31.0121 58.0598 31.051C58.0624 30.5672 58.0669 30.0719 58.0731 29.565C57.3491 29.465 56.6196 29.4093 55.8887 29.398ZM116.425 30.9383L116.435 30.9565L116.427 30.941L116.425 30.9383ZM67.8075 30.7882C68.0574 30.7882 68.3058 30.7818 68.5527 30.769C68.6543 30.7637 68.7555 30.7579 68.8562 30.7499C69.1085 30.6608 69.3577 30.5646 69.6037 30.4612C69.2338 30.4332 68.8612 30.3926 68.4863 30.3419C68.264 30.4992 68.0378 30.6485 67.8075 30.7895V30.7882ZM66.1722 30.7111C66.6063 30.7499 67.0382 30.7753 67.4647 30.7842C67.7229 30.6336 67.9764 30.4739 68.2251 30.3049C67.7607 30.2363 67.2931 30.1521 66.8247 30.0572C66.6125 30.2835 66.395 30.5019 66.1722 30.7125V30.7111ZM64.7254 30.5414C65.1292 30.6008 65.5324 30.6499 65.9351 30.6888C66.1686 30.4733 66.3973 30.2486 66.621 30.0149C66.1655 29.9196 65.7086 29.8145 65.2522 29.7031C65.0837 29.9926 64.9081 30.2725 64.7254 30.5427V30.5414ZM69.991 30.4857C69.8426 30.5539 69.6928 30.6194 69.5418 30.6808C69.8906 30.636 70.2357 30.5773 70.5771 30.5049C70.3989 30.5049 70.2206 30.4973 70.0387 30.4884L69.991 30.4857ZM62.5779 30.1837C63.2265 30.304 63.879 30.4185 64.5302 30.5147C64.7192 30.2408 64.9001 29.9548 65.073 29.6599C64.3773 29.4875 63.6833 29.3036 62.9947 29.1161C62.8616 29.4712 62.7227 29.8271 62.5779 30.1837ZM115.925 30.0973L116.132 30.3321C115.426 28.7176 114.844 27.052 114.39 25.3495C113.418 22.0209 112.498 18.8775 109.155 16.4807C104.465 13.1195 98.5224 13.0122 92.8369 13.1886L92.4558 13.2006C91.136 13.2732 89.8126 13.2434 88.4974 13.1115C88.2171 13.6839 87.9456 14.2598 87.68 14.8344C87.992 14.8077 88.2978 14.7783 88.5999 14.7493L88.7666 14.7333C94.6367 14.1663 100.824 13.8808 106.274 17.0972C109.68 19.106 111.106 21.8561 112.757 25.04C113.222 25.9362 113.693 26.8448 114.222 27.762C114.841 28.5014 115.41 29.2817 115.925 30.0973ZM70.3369 30.3227C70.6801 30.3343 71.0157 30.3321 71.3447 30.3183C74.889 29.3339 77.9555 26.8301 80.1604 23.0618C81.0813 21.4195 81.9014 19.7227 82.6163 17.9809C81.9762 18.0937 81.329 18.2201 80.6747 18.3599C80.1876 18.4642 79.6665 18.5755 79.1205 18.6717C78.5309 20.1973 77.906 21.7323 77.1768 23.179C75.5094 26.4867 73.1413 28.9379 70.3369 30.3227ZM68.6994 30.1913C69.1219 30.2448 69.5409 30.2844 69.9563 30.3071C72.8601 28.9682 75.3088 26.4889 77.0172 23.1006C77.7273 21.6926 78.3392 20.1978 78.9155 18.7096C77.8317 18.9118 76.7278 18.9865 75.6266 18.9323C75.1394 20.3679 74.6273 21.8236 74.0385 23.2084C72.9217 25.9747 71.0768 28.3876 68.6994 30.1913ZM82.8258 17.9448C82.0955 19.7299 81.2569 21.4688 80.3146 23.1518C78.2354 26.7045 75.3966 29.1468 72.1135 30.2679C77.9996 29.7174 81.6005 25.6048 83.3036 23.0235C84.4277 21.2519 85.419 19.3995 86.2693 17.4816C85.1426 17.59 83.9947 17.7444 82.8258 17.9448ZM66.9691 29.9058C67.4625 30.0038 67.9541 30.0893 68.44 30.157C70.8666 28.3659 72.7479 25.9366 73.8741 23.1398C74.4535 21.7732 74.9612 20.3363 75.443 18.9185C74.4062 18.8409 73.394 18.5646 72.4616 18.1047C72.3939 18.3399 72.3258 18.5758 72.2575 18.8125C71.8349 20.2762 71.3986 21.7888 70.8998 23.2373C70.0598 25.7054 68.722 27.9751 66.9691 29.9058ZM60.5116 29.7935C60.8406 29.8541 61.1677 29.9169 61.4922 29.9788C61.7935 30.0364 62.0958 30.0936 62.3992 30.1503C62.5478 29.7892 62.6888 29.429 62.8222 29.0697L62.6756 29.0301C62.04 28.8582 61.395 28.6835 60.7488 28.5183C60.6706 28.9518 60.5916 29.3769 60.5116 29.7935ZM65.3445 29.5432C65.8183 29.6586 66.2925 29.7659 66.765 29.8644C68.5373 27.9353 69.8883 25.6585 70.7318 23.179C71.2292 21.7349 71.6647 20.224 72.0863 18.7635C72.1582 18.515 72.2297 18.2676 72.3007 18.0214C72.066 17.8967 71.8381 17.7596 71.6179 17.6107C70.8739 17.0864 70.1969 16.4731 69.6019 15.7845C69.2422 17.0834 68.9236 18.4428 68.5968 19.8379C68.3325 20.9666 68.0593 22.1336 67.7616 23.2676C67.2201 25.4518 66.4082 27.5599 65.3445 29.5432ZM58.2532 29.4118C58.9445 29.5111 59.6438 29.6345 60.336 29.7606C60.4165 29.341 60.496 28.9122 60.5745 28.4742C59.8056 28.2791 59.0345 28.0987 58.2742 27.9504C58.2661 28.4448 58.2596 28.9319 58.2545 29.4118H58.2532ZM63.0566 28.9486C63.7551 29.137 64.4602 29.3254 65.1653 29.4996C66.2342 27.5163 67.0484 25.4061 67.5886 23.2191C67.8859 22.089 68.1592 20.9234 68.423 19.7955C68.7591 18.3595 69.0871 16.9595 69.4602 15.6246C69.2373 15.3734 69.0194 15.1181 68.8036 14.8674C68.2137 14.1448 67.5751 13.4632 66.8924 12.8273C66.001 15.2843 65.5063 18.1764 64.9852 21.2129C64.8662 21.9064 64.7468 22.6013 64.6224 23.2926C64.2663 25.2199 63.7424 27.1124 63.0566 28.9486ZM55.8624 29.2207C56.6028 29.2308 57.3418 29.2863 58.0754 29.3869C58.081 28.9049 58.088 28.415 58.0963 27.917C57.2584 27.7554 56.4383 27.6367 55.636 27.5606C55.706 28.1161 55.7822 28.6711 55.8624 29.2198V29.2207ZM60.7791 28.3424C61.4311 28.5089 62.0805 28.6844 62.721 28.8577C62.7754 28.8724 62.8293 28.8876 62.8837 28.9023C63.5686 27.0711 64.0917 25.1834 64.4468 23.261C64.5712 22.5701 64.6906 21.8752 64.8096 21.1826C65.3137 18.2428 65.8348 15.217 66.7498 12.7022L66.6433 12.6131C65.8416 11.9387 64.9994 11.3139 64.1215 10.7423C63.885 11.1656 63.6765 11.6039 63.4975 12.0545C62.2762 15.095 61.8737 19.2757 61.4846 23.3193C61.3157 25.0538 61.0625 26.7504 60.7791 28.3424ZM58.2768 27.7695C59.0475 27.9188 59.8275 28.1014 60.6057 28.2983C60.8851 26.7139 61.1405 25.0266 61.3054 23.301C61.6954 19.2477 62.0993 15.0518 63.3303 11.9873C63.5138 11.5264 63.7276 11.0782 63.9704 10.6456C63.1934 10.1429 62.3609 9.73158 61.4895 9.41983C60.6412 10.246 60.0102 11.2687 59.6523 12.3971C58.5714 15.4117 58.3838 19.6241 58.3437 23.3447C58.3312 24.4583 58.3129 25.5794 58.2951 26.6809C58.2889 27.0471 58.2828 27.4099 58.2768 27.7695ZM112.947 26.607C113.377 27.1308 113.815 27.6626 114.27 28.2007C114.203 28.0876 114.136 27.9741 114.071 27.8604C113.716 27.4355 113.341 27.0177 112.947 26.607ZM55.611 27.3789C56.4231 27.4543 57.2524 27.5731 58.099 27.7352C58.1043 27.3854 58.11 27.033 58.1159 26.6778C58.1338 25.5763 58.152 24.456 58.1641 23.3425C58.206 19.6067 58.3949 15.3774 59.4843 12.3369C59.8438 11.2148 60.464 10.1936 61.2943 9.35703C59.8469 8.9116 58.6499 9.02845 57.7032 9.70758C54.5342 11.9948 54.7584 20.1033 55.5049 26.5027C55.5388 26.7949 55.5742 27.087 55.611 27.3789ZM111.915 25.3446C112.524 25.9086 113.101 26.4916 113.638 27.0894C113.275 26.4279 112.934 25.7714 112.597 25.1219C110.959 21.9625 109.543 19.2339 106.182 17.2499C100.779 14.0616 94.6233 14.3458 88.7822 14.911L88.6155 14.9266C88.2799 14.9587 87.9385 14.9912 87.5904 15.0206C87.4213 15.3873 87.254 15.7527 87.0885 16.1168C89.3249 15.8172 91.5814 15.6949 93.8371 15.7511C97.0964 15.814 100.31 16.5314 103.286 17.8606C106.999 19.559 109.356 22.2298 111.915 25.3446ZM90.1421 17.1128C93.5854 17.0949 97.0111 17.6045 100.3 18.6236C104.239 19.8742 107.89 21.8948 111.042 24.5678C108.766 21.8507 106.534 19.5403 103.215 18.0223C97.8605 15.5725 92.1416 15.6576 87.0047 16.3088C86.8582 16.6301 86.7107 16.9521 86.5621 17.2749C87.7772 17.1674 88.9705 17.1136 90.1421 17.1136V17.1128ZM75.6819 18.768C76.7903 18.8153 77.9004 18.7313 78.9891 18.5176C79.1546 18.0891 79.318 17.6623 79.4793 17.237C79.515 17.1435 79.5502 17.05 79.5859 16.956C78.544 16.8479 77.5313 16.547 76.5996 16.0687C76.3767 16.7114 76.1588 17.356 75.9435 17.9951C75.8582 18.2517 75.771 18.5093 75.6819 18.768ZM72.5111 17.9328C73.442 18.4023 74.4572 18.6818 75.4974 18.755C75.5901 18.4815 75.682 18.2092 75.7733 17.9381C75.9912 17.2896 76.2118 16.6357 76.4391 15.9832C76.2965 15.9043 76.1543 15.8206 76.013 15.7306C75.2076 15.1911 74.4678 14.5597 73.8086 13.8491C73.3348 15.1489 72.9229 16.5177 72.5115 17.9328H72.5111ZM79.7686 16.9751C79.7273 17.0838 79.6862 17.1923 79.6451 17.3007C79.4966 17.6918 79.3464 18.085 79.1945 18.4802C79.6915 18.388 80.1751 18.2847 80.6369 18.1858C81.3319 18.0373 82.0193 17.9037 82.6992 17.7849C82.8284 17.4808 82.9566 17.1772 83.0838 16.874C81.9859 17.0283 80.8744 17.0623 79.7691 16.9751H79.7686ZM69.6576 15.5796C70.2633 16.2902 70.955 16.9228 71.7168 17.4629C71.9263 17.6039 72.1376 17.7322 72.3506 17.8477C72.7674 16.413 73.1863 15.0246 73.6713 13.7053C73.5402 13.5716 73.4105 13.4336 73.2817 13.2981C72.6398 12.5887 71.9437 11.9302 71.1998 11.3285L71.1833 11.3623C70.5555 12.722 70.0452 14.1329 69.6581 15.5796H69.6576ZM83.288 16.8486C83.1623 17.1485 83.0357 17.4491 82.9082 17.7502C84.0786 17.5521 85.2277 17.4002 86.3553 17.2945C86.5039 16.9747 86.6502 16.6555 86.7944 16.3368C86.0942 16.4259 85.4042 16.5293 84.7285 16.6357C84.2667 16.7083 83.7849 16.784 83.2884 16.8486H83.288ZM79.831 16.8112C80.9428 16.8918 82.06 16.8501 83.1627 16.6869C83.1685 16.6736 83.1739 16.6602 83.1792 16.6473C83.407 16.1061 83.6361 15.5605 83.8709 15.0148C82.8337 14.8894 81.8261 14.5855 80.8927 14.1164C80.5228 15.0108 80.1733 15.9141 79.8315 16.8112H79.831ZM76.6584 15.9016C77.5891 16.3867 78.6042 16.6891 79.6487 16.7925C79.9986 15.874 80.3556 14.9471 80.7354 14.0331C80.627 13.9747 80.5196 13.9142 80.4122 13.8505C79.6032 13.3441 78.8493 12.7547 78.1627 12.0919C77.602 13.3079 77.1148 14.5979 76.6584 15.9016ZM84.0573 15.0398C83.8241 15.5814 83.5959 16.1235 83.37 16.6615C83.8219 16.6001 84.2667 16.5279 84.7031 16.462C85.3761 16.356 86.108 16.2469 86.8871 16.1462L86.9218 16.07C87.0778 15.7282 87.2349 15.385 87.393 15.0402C86.2829 15.1463 85.1653 15.1454 84.0555 15.0375L84.0573 15.0398ZM73.8799 13.6661C74.5461 14.3897 75.2951 15.0325 76.1115 15.5814C76.2412 15.6633 76.371 15.7413 76.5015 15.8139C76.9633 14.499 77.4567 13.1953 78.0259 11.9663C77.9412 11.8884 77.8574 11.81 77.7736 11.732C77.1092 11.0813 76.395 10.4835 75.6373 9.9441C75.4073 10.3151 75.2054 10.6773 75.0289 11.0202C74.5935 11.878 74.2092 12.7608 73.8781 13.6638L73.8799 13.6661ZM66.9606 12.6492C67.6701 13.3023 68.3319 14.0054 68.9409 14.7529C69.1317 14.9756 69.3238 15.2006 69.5204 15.4233C69.9047 14.0053 70.4084 12.6224 71.026 11.2893C71.0362 11.267 71.0469 11.2447 71.0576 11.2229C70.2562 10.6245 69.4145 10.082 68.5385 9.59934C68.0658 10.2588 67.665 10.9667 67.3426 11.7111C67.2062 12.0143 67.0783 12.3262 66.9589 12.6469L66.9606 12.6492ZM84.1317 14.8674C85.2439 14.9685 86.3631 14.9644 87.4745 14.8549C87.746 14.2661 88.0228 13.6763 88.3093 13.0906C87.2802 12.9598 86.277 12.6733 85.3342 12.2407C84.9081 13.099 84.5123 13.9814 84.1299 14.8651L84.1317 14.8674ZM80.9636 13.9534C81.8979 14.4231 82.9077 14.7247 83.9467 14.8442C84.3363 13.9422 84.741 13.0411 85.1751 12.1619C85.0533 12.1025 84.9319 12.0391 84.8109 11.9717C84.0457 11.5312 83.3205 11.0244 82.6439 10.4572C82.015 11.5878 81.4533 12.7545 80.9618 13.9511L80.9636 13.9534ZM78.2447 11.9253C78.9349 12.5941 79.6931 13.1889 80.5072 13.6999C80.6065 13.7596 80.7068 13.8162 80.8071 13.8705C81.303 12.6626 81.8702 11.4852 82.5057 10.3445L82.2869 10.1664C81.6264 9.60317 80.9263 9.08813 80.192 8.6252C79.7031 9.27508 79.2624 9.9599 78.8736 10.6741C78.6517 11.0789 78.4407 11.4952 78.2407 11.9231L78.2447 11.9253ZM71.284 11.1681C72.0468 11.7805 72.7595 12.4527 73.4154 13.1783C73.5248 13.2932 73.6346 13.4082 73.7448 13.5231C74.0707 12.6409 74.4473 11.7783 74.8729 10.9396C75.0512 10.5913 75.2567 10.2234 75.4907 9.84744C74.7133 9.33983 73.9001 8.88921 73.0575 8.49914C72.3475 9.30416 71.7496 10.2013 71.28 11.1663L71.284 11.1681ZM85.4176 12.0804C86.3614 12.5116 87.3661 12.7953 88.3963 12.9213C88.8264 12.0487 89.2779 11.1842 89.7659 10.3517C89.5802 10.2718 89.3951 10.1854 89.2106 10.0924C88.5352 9.73969 87.8843 9.34192 87.2624 8.90181C87.0021 9.27908 86.7694 9.64255 86.5635 9.98374C86.1517 10.6577 85.7724 11.3605 85.4136 12.0786L85.4176 12.0804ZM66.7614 12.4768L66.8198 12.5253C66.9336 12.2219 67.0539 11.9262 67.1808 11.6385C67.5054 10.8902 67.9077 10.1781 68.3811 9.51382C67.6221 9.10223 66.8183 8.77925 65.9854 8.55126C65.2645 9.10554 64.6621 9.7988 64.2142 10.59C65.1 11.1653 65.9493 11.7949 66.7574 12.475L66.7614 12.4768ZM82.7357 10.3009C83.4113 10.868 84.1354 11.3748 84.8996 11.8153C85.0185 11.881 85.1374 11.943 85.2562 12.0015C85.6172 11.2786 85.9992 10.5713 86.4102 9.8902C86.6179 9.54634 86.8528 9.17752 87.1153 8.7998L86.8331 8.60382C86.1997 8.14495 85.5401 7.72317 84.8577 7.34059C84.052 8.25333 83.3397 9.24445 82.7317 10.2991L82.7357 10.3009ZM75.7309 9.79221C76.4979 10.3376 77.2208 10.9422 77.8931 11.6006L78.1034 11.7957C78.2978 11.3842 78.501 10.9802 78.7149 10.5882C79.1047 9.87219 79.5457 9.18534 80.0347 8.53299L79.9228 8.47063C79.1983 8.06641 78.4464 7.71351 77.6724 7.41453C76.9306 8.12496 76.2786 8.92345 75.7309 9.79221ZM68.6441 9.45324C69.51 9.931 70.3425 10.4667 71.1361 11.0568C71.5992 10.1051 72.1834 9.21731 72.8743 8.4154C72.1282 8.07888 71.3468 7.82669 70.5446 7.66353C69.8091 8.14215 69.165 8.74824 68.6428 9.45324H68.6441ZM61.6464 9.28754C62.4929 9.60013 63.3027 10.0043 64.0613 10.4929C64.4977 9.7267 65.074 9.04909 65.7603 8.49513C64.8774 8.26678 63.9499 8.27461 63.0709 8.51785C62.5489 8.67727 62.0639 8.93892 61.6442 9.28754H61.6464ZM87.364 8.75303C87.9791 9.18839 88.6228 9.58185 89.2908 9.93074C89.478 10.0258 89.6667 10.1137 89.8568 10.1944C89.9876 9.97439 90.1213 9.75643 90.258 9.54054C90.7484 8.76019 91.2842 8.00925 91.8626 7.2916C91.7211 7.21053 91.581 7.12961 91.4423 7.04884C90.8321 6.69517 90.2455 6.35531 89.6353 6.06623C88.7976 6.89206 88.0359 7.79159 87.3595 8.75392L87.364 8.75303ZM80.3021 8.48088C81.0363 8.94648 81.7371 9.46279 82.3992 10.0261L82.5949 10.1846C83.1972 9.14152 83.9005 8.16 84.6946 7.25418C84.5827 7.19717 84.4718 7.14193 84.3545 7.08937C83.7095 6.79174 83.0458 6.53642 82.3676 6.32503C81.6007 6.96584 80.9069 7.68912 80.2986 8.48177L80.3021 8.48088ZM73.1832 8.35883C74.0144 8.74718 74.817 9.19371 75.5852 9.69511C76.1245 8.83957 76.7632 8.05075 77.4879 7.34505C76.7493 7.06983 75.9838 6.87291 75.2041 6.75753C74.4496 7.18254 73.7665 7.72318 73.1797 8.35972L73.1832 8.35883ZM66.1722 8.41585C66.9757 8.64919 67.7518 8.968 68.4872 9.36683C68.9879 8.68853 69.5976 8.09778 70.2914 7.61854C69.3578 7.44902 68.3972 7.50291 67.4884 7.77577C67.0195 7.92472 66.5749 8.14125 66.1686 8.41852L66.1722 8.41585ZM84.9812 7.20296C85.6557 7.58383 86.3082 8.0023 86.9357 8.45638L87.2182 8.65237C87.8858 7.69934 88.6364 6.8071 89.4611 5.98606C89.2382 5.88628 89.0154 5.79274 88.784 5.70811C88.2566 5.5145 87.7195 5.34814 87.175 5.20968C86.3777 5.79968 85.6413 6.46771 84.9768 7.20385L84.9812 7.20296ZM80.0137 8.31385C80.0583 8.33879 80.1029 8.36373 80.1475 8.38957C80.743 7.61125 81.4195 6.89829 82.1656 6.26267C81.4257 6.04187 80.6658 5.89461 79.897 5.82303C79.1445 6.21536 78.4469 6.70492 77.8222 7.27912C78.5737 7.5748 79.3044 7.92079 80.0093 8.31474L80.0137 8.31385ZM70.7666 7.52767C71.534 7.70063 72.2818 7.95152 72.9982 8.27643C73.5471 7.66782 74.1819 7.14262 74.8827 6.71744C73.8817 6.59833 72.8666 6.69818 71.908 7.01009C71.5112 7.14396 71.1287 7.31736 70.7666 7.52767ZM75.4626 6.61589C76.2018 6.74367 76.9272 6.94175 77.6287 7.20741C78.2109 6.66302 78.8561 6.19018 79.5507 5.79898C78.1394 5.70351 76.7283 5.9858 75.4626 6.61678V6.61589ZM89.7664 5.93483C90.3609 6.21991 90.9328 6.55175 91.5269 6.89561L91.9726 7.15307C92.6924 6.27385 93.4824 5.45454 94.3349 4.70324C93.9669 4.55843 93.5914 4.43353 93.2099 4.32908C92.8257 4.22455 92.45 4.13547 92.0827 4.06182C91.2567 4.6165 90.4816 5.24329 89.7664 5.93483ZM84.4259 6.92858C84.5596 6.98871 84.6866 7.05196 84.8141 7.11744C85.4602 6.39709 86.1736 5.73994 86.9446 5.1549C86.2085 4.97855 85.458 4.86912 84.7022 4.82795C83.9278 5.19832 83.1988 5.65688 82.5298 6.19452C83.1764 6.39942 83.8095 6.64459 84.4254 6.92858H84.4259ZM80.1787 5.68139C80.9047 5.76797 81.6218 5.9179 82.3217 6.12948C82.9394 5.62231 83.6086 5.1813 84.3184 4.8137C82.8894 4.77648 81.4715 5.0741 80.1782 5.68272L80.1787 5.68139ZM87.3595 5.07472C87.8376 5.20063 88.3319 5.35638 88.8424 5.54197C89.0996 5.63595 89.3492 5.74063 89.5943 5.85377C90.287 5.17901 91.036 4.56448 91.8331 4.01684C91.0946 3.88122 90.3461 3.80673 89.5952 3.79412C88.809 4.1452 88.06 4.57421 87.3595 5.07472ZM85.0512 4.66938C85.7531 4.7289 86.449 4.84494 87.1322 5.01637C87.7718 4.54903 88.452 4.13997 89.1647 3.79412C87.749 3.81385 86.3509 4.11123 85.0498 4.66938H85.0512ZM93.2567 4.15625C93.674 4.27133 94.0846 4.40963 94.4865 4.5705C95.2284 3.93006 96.0181 3.34709 96.8487 2.82666C96.105 2.72861 95.355 2.68618 94.605 2.69972C93.8009 3.04074 93.0278 3.45073 92.2945 3.92508C92.6091 3.991 92.9299 4.06806 93.2567 4.15625ZM89.9892 3.62531C90.6794 3.6586 91.3663 3.74182 92.0444 3.8743C92.7059 3.43543 93.4003 3.04825 94.1214 2.7162C92.7029 2.78648 91.3062 3.09377 89.9892 3.62531ZM95.0507 2.51932C95.7329 2.52865 96.4137 2.58207 97.089 2.67923C97.7789 2.26128 98.4957 1.88929 99.2346 1.56567C97.8013 1.68293 96.392 2.00406 95.0494 2.51932H95.0507Z" fill="#BEFF00"/>
<path d="M84.8527 59.5314H102.66V57.4379H87.1718V47.0885H99.5541V45.3166H87.1718V35.1288H102.287V33.0353H84.8527V59.5314ZM71.4368 59.9323C80.0506 59.9323 82.4526 56.0664 82.4526 52.1605C82.4526 49.7846 81.3343 48.0127 79.5109 47.1673C77.7303 46.2814 74.7485 45.8382 72.0982 45.4747C69.8207 45.1527 66.3833 44.6694 65.0168 43.9442C63.7746 43.2596 63.0289 42.1322 63.0289 40.2802C63.0289 36.9395 66.3004 34.6019 71.3116 34.6019C76.985 34.6019 79.3041 37.1791 79.3041 42.2529H81.4988C81.4988 36.0918 78.89 32.6291 71.2701 32.6291C64.8519 32.6291 60.7099 35.8905 60.7099 40.441C60.7099 42.8569 61.7867 44.5482 63.3186 45.4743C64.851 46.3602 68.1225 47.0043 70.6902 47.2862C73.0922 47.6083 76.2394 48.0109 77.7717 48.6555C79.3041 49.3 80.134 50.4274 80.134 52.2794C80.134 55.1787 78.3119 57.9573 71.4373 57.9573C64.7288 57.9573 62.9892 54.5346 62.9892 50.5075H60.7946C60.7946 55.2192 62.741 59.9305 71.4373 59.9305L71.4368 59.9323ZM55.7839 59.5296H58.1461V33.0349H55.7839V59.5296ZM39.6749 57.837C33.5874 57.837 28.4519 53.4478 28.4519 46.1593C28.4519 39.0325 33.5874 34.723 39.6749 34.723C45.7625 34.723 50.8975 39.0316 50.8975 46.1593C50.8975 53.4478 45.7625 57.837 39.6749 57.837ZM39.6749 59.9305C47.1705 59.9305 53.258 54.736 53.258 46.1589C53.258 37.7426 47.1705 32.6287 39.6749 32.6287C32.1794 32.6287 26.1307 37.7461 26.1307 46.1624C26.1307 54.7395 32.1772 59.9341 39.6727 59.9341L39.6749 59.9305ZM0.952393 59.5332H3.18853V34.6856H3.22998L20.9546 59.5314H23.7292V33.0349H21.493V56.4709H21.4101L4.72089 33.0349H0.952393V59.5332Z" fill="white"/>
</svg>
